<mxfile host="65bd71144e">
    <diagram id="wx075xa1W-To4sPmI8KL" name="Page-1">
        <mxGraphModel dx="673" dy="157" grid="0" gridSize="10" guides="1" tooltips="1" connect="1" arrows="1" fold="1" page="0" pageScale="1" pageWidth="827" pageHeight="1169" background="#FFFFFF" math="0" shadow="0">
            <root>
                <mxCell id="0"/>
                <mxCell id="1" parent="0"/>
                <mxCell id="78" value="compas_Viewer" style="rounded=0;whiteSpace=wrap;html=1;labelBackgroundColor=none;fontColor=default;align=left;verticalAlign=top;labelPosition=center;verticalLabelPosition=middle;fontFamily=Source Sans Pro;fontStyle=3;fontSize=16;spacing=0;spacingLeft=10;fillColor=none;dashed=1;movable=1;resizable=1;rotatable=1;deletable=1;editable=1;connectable=1;" parent="1" vertex="1">
                    <mxGeometry x="-7" y="1246" width="619" height="937" as="geometry"/>
                </mxCell>
                <mxCell id="183" value="Viewer&amp;nbsp;&lt;span style=&quot;background-color: rgb(255, 153, 153);&quot;&gt;(the main entry)&lt;/span&gt;:&lt;br&gt;---&lt;br&gt;&lt;span style=&quot;font-weight: normal;&quot;&gt;Gluing each class, and the entry for the user.&lt;br&gt;To import: `from compas_viewer import Viewer`&lt;br&gt;To init: `viewer =&amp;nbsp;&lt;/span&gt;&lt;span style=&quot;font-weight: 400;&quot;&gt;Viewer()`&lt;br&gt;&lt;/span&gt;&lt;span style=&quot;font-weight: normal;&quot;&gt;To add geometries: `viewer.add()`&lt;br&gt;To launch: `viewer.draw()`&lt;br&gt;&lt;/span&gt;" style="rounded=0;whiteSpace=wrap;html=1;labelBackgroundColor=none;fontColor=default;align=left;verticalAlign=top;labelPosition=center;verticalLabelPosition=middle;fontFamily=Source Sans Pro;fontStyle=3;fontSize=16;spacing=0;spacingLeft=10;fillColor=none;dashed=1;movable=1;resizable=1;rotatable=1;deletable=1;editable=1;connectable=1;strokeColor=#999999;" parent="1" vertex="1">
                    <mxGeometry x="4" y="1290" width="588" height="879" as="geometry"/>
                </mxCell>
                <mxCell id="206" value="&lt;span style=&quot;font-weight: 400; text-align: left; background-color: rgb(105, 200, 255);&quot;&gt;(extendable)&lt;/span&gt;" style="rounded=0;whiteSpace=wrap;html=1;labelBackgroundColor=none;fontColor=default;align=right;verticalAlign=bottom;labelPosition=center;verticalLabelPosition=middle;fontFamily=Source Sans Pro;fontStyle=3;fontSize=16;spacing=0;spacingLeft=10;fillColor=none;dashed=1;movable=1;resizable=1;rotatable=1;deletable=1;editable=1;connectable=1;spacingBottom=10;spacingTop=10;spacingRight=10;" vertex="1" parent="1">
                    <mxGeometry x="13" y="1440" width="460" height="162" as="geometry"/>
                </mxCell>
                <mxCell id="199" style="edgeStyle=orthogonalEdgeStyle;shape=connector;rounded=0;html=1;labelBackgroundColor=none;strokeColor=default;strokeWidth=2;fontFamily=Source Sans Pro;fontSize=16;fontColor=default;endArrow=open;endFill=0;startSize=6;endSize=6;sourcePerimeterSpacing=0;targetPerimeterSpacing=0;" edge="1" parent="1" source="113" target="119">
                    <mxGeometry relative="1" as="geometry"/>
                </mxCell>
                <mxCell id="218" style="edgeStyle=orthogonalEdgeStyle;shape=connector;rounded=0;html=1;labelBackgroundColor=none;strokeColor=default;strokeWidth=2;fontFamily=Source Sans Pro;fontSize=16;fontColor=default;endArrow=open;endFill=0;startSize=6;endSize=6;sourcePerimeterSpacing=0;targetPerimeterSpacing=0;" edge="1" parent="1" source="201" target="83">
                    <mxGeometry relative="1" as="geometry">
                        <Array as="points">
                            <mxPoint x="-13" y="1474"/>
                            <mxPoint x="-13" y="1474"/>
                        </Array>
                    </mxGeometry>
                </mxCell>
                <mxCell id="201" value="3DScene(Qt OpenGL Widget):" style="rounded=0;whiteSpace=wrap;html=1;labelBackgroundColor=none;fontColor=default;align=left;verticalAlign=top;labelPosition=center;verticalLabelPosition=middle;fontFamily=Source Sans Pro;fontStyle=3;fontSize=16;spacing=0;spacingLeft=10;" vertex="1" parent="1">
                    <mxGeometry x="19" y="1454" width="442" height="40" as="geometry"/>
                </mxCell>
                <mxCell id="113" value="Objects:&lt;br&gt;&lt;br&gt;&lt;span style=&quot;font-weight: normal;&quot;&gt;textobject&lt;br&gt;robotobject&lt;br&gt;lineobject&lt;br&gt;polylineobject&lt;br&gt;planeobject&lt;br&gt;...&lt;br&gt;&lt;/span&gt;&lt;br style=&quot;border-color: var(--border-color); font-weight: 400;&quot;&gt;&lt;span style=&quot;border-color: var(--border-color); font-weight: 400; background-color: rgb(105, 200, 255);&quot;&gt;(extendable)&lt;/span&gt;&lt;span style=&quot;font-weight: normal;&quot;&gt;&lt;br&gt;&lt;/span&gt;" style="rounded=0;whiteSpace=wrap;html=1;labelBackgroundColor=none;fontColor=default;align=left;verticalAlign=top;labelPosition=center;verticalLabelPosition=middle;fontFamily=Source Sans Pro;fontStyle=3;fontSize=16;spacing=0;spacingLeft=10;" parent="1" vertex="1">
                    <mxGeometry x="21" y="1614" width="139" height="259" as="geometry"/>
                </mxCell>
                <mxCell id="198" style="edgeStyle=orthogonalEdgeStyle;shape=connector;rounded=0;html=1;labelBackgroundColor=none;strokeColor=default;strokeWidth=2;fontFamily=Source Sans Pro;fontSize=16;fontColor=default;endArrow=open;endFill=0;startSize=6;endSize=6;sourcePerimeterSpacing=0;targetPerimeterSpacing=0;" edge="1" parent="1" source="119" target="47">
                    <mxGeometry relative="1" as="geometry"/>
                </mxCell>
                <mxCell id="119" value="Shaders:&lt;br&gt;&lt;br style=&quot;border-color: var(--border-color); color: rgb(33, 37, 41); font-family: -apple-system, BlinkMacSystemFont, &amp;quot;Segoe UI&amp;quot;, Roboto, &amp;quot;Helvetica Neue&amp;quot;, Arial, &amp;quot;Noto Sans&amp;quot;, sans-serif, &amp;quot;Apple Color Emoji&amp;quot;, &amp;quot;Segoe UI Emoji&amp;quot;, &amp;quot;Segoe UI Symbol&amp;quot;, &amp;quot;Noto Color Emoji&amp;quot;;&quot;&gt;&lt;span style=&quot;border-color: var(--border-color); color: rgb(33, 37, 41); font-family: -apple-system, BlinkMacSystemFont, &amp;quot;Segoe UI&amp;quot;, Roboto, &amp;quot;Helvetica Neue&amp;quot;, Arial, &amp;quot;Noto Sans&amp;quot;, sans-serif, &amp;quot;Apple Color Emoji&amp;quot;, &amp;quot;Segoe UI Emoji&amp;quot;, &amp;quot;Segoe UI Symbol&amp;quot;, &amp;quot;Noto Color Emoji&amp;quot;; font-weight: 400;&quot;&gt;text.frag&lt;br&gt;&lt;/span&gt;&lt;span style=&quot;background-color: initial; font-weight: 400;&quot;&gt;&lt;font face=&quot;-apple-system, BlinkMacSystemFont, Segoe UI, Roboto, Helvetica Neue, Arial, Noto Sans, sans-serif, Apple Color Emoji, Segoe UI Emoji, Segoe UI Symbol, Noto Color Emoji&quot; color=&quot;#212529&quot;&gt;text.vert&lt;/font&gt;&lt;/span&gt;&lt;div&gt;&lt;font face=&quot;-apple-system, BlinkMacSystemFont, Segoe UI, Roboto, Helvetica Neue, Arial, Noto Sans, sans-serif, Apple Color Emoji, Segoe UI Emoji, Segoe UI Symbol, Noto Color Emoji&quot; color=&quot;#212529&quot;&gt;&lt;span style=&quot;font-weight: 400;&quot;&gt;grid.frag&lt;/span&gt;&lt;/font&gt;&lt;/div&gt;&lt;div&gt;&lt;font face=&quot;-apple-system, BlinkMacSystemFont, Segoe UI, Roboto, Helvetica Neue, Arial, Noto Sans, sans-serif, Apple Color Emoji, Segoe UI Emoji, Segoe UI Symbol, Noto Color Emoji&quot; color=&quot;#212529&quot;&gt;&lt;span style=&quot;font-weight: 400;&quot;&gt;grid.vert&lt;/span&gt;&lt;/font&gt;&lt;/div&gt;&lt;span style=&quot;color: rgb(33, 37, 41); font-family: -apple-system, BlinkMacSystemFont, &amp;quot;Segoe UI&amp;quot;, Roboto, &amp;quot;Helvetica Neue&amp;quot;, Arial, &amp;quot;Noto Sans&amp;quot;, sans-serif, &amp;quot;Apple Color Emoji&amp;quot;, &amp;quot;Segoe UI Emoji&amp;quot;, &amp;quot;Segoe UI Symbol&amp;quot;, &amp;quot;Noto Color Emoji&amp;quot;; font-weight: 400;&quot;&gt;arrow.vert&lt;/span&gt;&lt;div&gt;&lt;font face=&quot;-apple-system, BlinkMacSystemFont, Segoe UI, Roboto, Helvetica Neue, Arial, Noto Sans, sans-serif, Apple Color Emoji, Segoe UI Emoji, Segoe UI Symbol, Noto Color Emoji&quot; color=&quot;#212529&quot;&gt;&lt;span style=&quot;font-weight: 400;&quot;&gt;arrow.frag&lt;/span&gt;&lt;/font&gt;&lt;/div&gt;&lt;span style=&quot;border-color: var(--border-color); color: rgb(33, 37, 41); font-family: -apple-system, BlinkMacSystemFont, &amp;quot;Segoe UI&amp;quot;, Roboto, &amp;quot;Helvetica Neue&amp;quot;, Arial, &amp;quot;Noto Sans&amp;quot;, sans-serif, &amp;quot;Apple Color Emoji&amp;quot;, &amp;quot;Segoe UI Emoji&amp;quot;, &amp;quot;Segoe UI Symbol&amp;quot;, &amp;quot;Noto Color Emoji&amp;quot;; font-weight: 400;&quot;&gt;...&lt;/span&gt;" style="rounded=0;whiteSpace=wrap;html=1;labelBackgroundColor=none;fontColor=default;align=left;verticalAlign=top;labelPosition=center;verticalLabelPosition=middle;fontFamily=Source Sans Pro;fontStyle=3;fontSize=16;spacing=0;spacingLeft=10;" parent="1" vertex="1">
                    <mxGeometry x="184" y="1613" width="83" height="260" as="geometry"/>
                </mxCell>
                <mxCell id="215" style="edgeStyle=orthogonalEdgeStyle;shape=connector;rounded=0;html=1;labelBackgroundColor=none;strokeColor=default;strokeWidth=2;fontFamily=Source Sans Pro;fontSize=16;fontColor=default;endArrow=open;endFill=0;startSize=6;endSize=6;sourcePerimeterSpacing=0;targetPerimeterSpacing=0;" edge="1" parent="1" source="49" target="47">
                    <mxGeometry relative="1" as="geometry">
                        <Array as="points">
                            <mxPoint x="384" y="1898"/>
                            <mxPoint x="384" y="1898"/>
                        </Array>
                    </mxGeometry>
                </mxCell>
                <mxCell id="49" value="Controller:" style="rounded=0;whiteSpace=wrap;html=1;labelBackgroundColor=none;fontColor=default;align=left;verticalAlign=top;labelPosition=center;verticalLabelPosition=middle;fontFamily=Source Sans Pro;fontStyle=3;fontSize=16;spacing=0;spacingLeft=10;" parent="1" vertex="1">
                    <mxGeometry x="21" y="1905.5" width="451" height="233.5" as="geometry"/>
                </mxCell>
                <mxCell id="83" value="Visualization" style="rounded=0;whiteSpace=wrap;html=1;labelBackgroundColor=none;fontColor=default;align=center;verticalAlign=bottom;labelPosition=center;verticalLabelPosition=middle;fontFamily=Source Sans Pro;fontStyle=3;fontSize=16;spacing=0;spacingLeft=10;spacingRight=10;strokeColor=#999999;" parent="1" vertex="1">
                    <mxGeometry x="-168.85" y="1468" width="148" height="115" as="geometry"/>
                </mxCell>
                <mxCell id="157" style="edgeStyle=orthogonalEdgeStyle;shape=connector;rounded=0;html=1;labelBackgroundColor=none;strokeColor=default;strokeWidth=2;fontFamily=Source Sans Pro;fontSize=16;fontColor=default;startArrow=none;startFill=0;endArrow=open;endFill=0;startSize=6;endSize=6;sourcePerimeterSpacing=0;targetPerimeterSpacing=0;entryX=0.507;entryY=0.992;entryDx=0;entryDy=0;entryPerimeter=0;" parent="1" source="81" target="147" edge="1">
                    <mxGeometry relative="1" as="geometry">
                        <Array as="points">
                            <mxPoint x="12" y="2060"/>
                            <mxPoint x="12" y="2155"/>
                            <mxPoint x="539" y="2155"/>
                        </Array>
                        <mxPoint x="662" y="2004" as="targetPoint"/>
                    </mxGeometry>
                </mxCell>
                <mxCell id="214" style="edgeStyle=orthogonalEdgeStyle;shape=connector;rounded=0;html=1;entryX=0;entryY=0.565;entryDx=0;entryDy=0;entryPerimeter=0;labelBackgroundColor=none;strokeColor=default;strokeWidth=2;fontFamily=Source Sans Pro;fontSize=16;fontColor=default;endArrow=open;endFill=0;startSize=6;endSize=6;sourcePerimeterSpacing=0;targetPerimeterSpacing=0;" edge="1" parent="1" source="81" target="49">
                    <mxGeometry relative="1" as="geometry"/>
                </mxCell>
                <mxCell id="81" value="&lt;span style=&quot;&quot;&gt;Mouse Key Inputs&lt;/span&gt;" style="rounded=0;whiteSpace=wrap;html=1;labelBackgroundColor=none;fontColor=default;align=center;verticalAlign=bottom;labelPosition=center;verticalLabelPosition=middle;fontFamily=Source Sans Pro;fontStyle=3;fontSize=16;spacing=0;spacingLeft=10;spacingRight=10;strokeColor=#999999;" parent="1" vertex="1">
                    <mxGeometry x="-168.85" y="1980" width="150" height="115" as="geometry"/>
                </mxCell>
                <mxCell id="58" value="Camera:" style="rounded=0;whiteSpace=wrap;html=1;labelBackgroundColor=none;fontColor=default;align=left;verticalAlign=top;labelPosition=center;verticalLabelPosition=middle;fontFamily=Source Sans Pro;fontStyle=3;fontSize=16;spacing=0;spacingLeft=10;" parent="1" vertex="1">
                    <mxGeometry x="236.5" y="1460" width="93" height="28" as="geometry"/>
                </mxCell>
                <mxCell id="63" value="Collection:" style="rounded=0;whiteSpace=wrap;html=1;labelBackgroundColor=none;fontColor=default;align=left;verticalAlign=top;labelPosition=center;verticalLabelPosition=middle;fontFamily=Source Sans Pro;fontStyle=3;fontSize=16;spacing=0;spacingLeft=10;" parent="1" vertex="1">
                    <mxGeometry x="31.5" y="1821" width="118" height="39" as="geometry"/>
                </mxCell>
                <mxCell id="66" value="Actions:&lt;br&gt;&lt;span style=&quot;font-weight: normal;&quot;&gt;&lt;br&gt;view_front&lt;br&gt;view_capture&lt;br&gt;view_shaded&lt;br&gt;zoom_selected&lt;br&gt;... &lt;br&gt;&lt;/span&gt;&lt;br style=&quot;border-color: var(--border-color); font-weight: 400;&quot;&gt;&lt;span style=&quot;border-color: var(--border-color); font-weight: 400; background-color: rgb(105, 200, 255);&quot;&gt;(extendable)&lt;/span&gt;&lt;span style=&quot;font-weight: normal;&quot;&gt;&lt;br&gt;&lt;/span&gt;" style="rounded=0;whiteSpace=wrap;html=1;labelBackgroundColor=none;fontColor=default;align=left;verticalAlign=top;labelPosition=center;verticalLabelPosition=middle;fontFamily=Source Sans Pro;fontStyle=3;fontSize=16;spacing=0;spacingLeft=10;" parent="1" vertex="1">
                    <mxGeometry x="224" y="1936.75" width="116" height="189" as="geometry"/>
                </mxCell>
                <mxCell id="75" value="&quot;mouse_key&quot; actions:&lt;br&gt;&lt;div&gt;&lt;br&gt;&lt;/div&gt;&lt;div&gt;&lt;span style=&quot;font-weight: normal;&quot;&gt;pan&lt;/span&gt;&lt;/div&gt;&lt;div&gt;&lt;span style=&quot;font-weight: normal;&quot;&gt;rotate&lt;/span&gt;&lt;/div&gt;&lt;div&gt;&lt;span style=&quot;font-weight: normal;&quot;&gt;box_selection&lt;/span&gt;&lt;/div&gt;&lt;div&gt;&lt;span style=&quot;font-weight: normal;&quot;&gt;box_deselection&lt;/span&gt;&lt;/div&gt;&lt;div&gt;&lt;span style=&quot;font-weight: normal;&quot;&gt;selection_mouse&lt;/span&gt;&lt;/div&gt;&lt;div&gt;&lt;span style=&quot;font-weight: normal;&quot;&gt;multi_selection&amp;nbsp;&lt;/span&gt;&lt;/div&gt;&lt;div&gt;&lt;span style=&quot;font-weight: normal;&quot;&gt;deselect&lt;/span&gt;&lt;/div&gt;&lt;div&gt;&lt;br&gt;&lt;/div&gt;" style="rounded=0;whiteSpace=wrap;html=1;labelBackgroundColor=none;fontColor=default;align=left;verticalAlign=top;labelPosition=center;verticalLabelPosition=middle;fontFamily=Source Sans Pro;fontStyle=3;fontSize=16;spacing=0;spacingLeft=10;" parent="1" vertex="1">
                    <mxGeometry x="48" y="1937" width="166" height="189" as="geometry"/>
                </mxCell>
                <mxCell id="79" value="" style="shape=image;verticalLabelPosition=bottom;labelBackgroundColor=default;verticalAlign=top;aspect=fixed;imageAspect=0;image=data:image/png,iVBORw0KGgoAAAANSUhEUgAAAgAAAAIACAYAAAD0eNT6AAAAAXNSR0IArs4c6QAAIABJREFUeAHt3VuwfFl9F/AfDJAqMgMJWNwTAkwkwoDJmxX1AcFUAhmEWJHCh1S0IkRmYASswicLKNEU14yVIPFBX00slYQQQMokprhfJgihxEIUSLQqgcHKhctcmFiLOU0dDn36dO/v7l69en+66l/n/Lt77b1+n/Xb67e6T/feVW4ECBAgQIAAAQIECBAgQIAAAQIECBAgQIAAAQIECBAgQIAAAQIECBAgQIAAAQIECBAgQIAAAQIECBAgQIAAAQIECBAgQIAAAQIECBAgQIAAAQIECBAgQIAAAQIECBAgQIAAAQIECBAgQIAAAQIECBAgQIAAAQIECBAgQIAAAQIECBAgQIAAAQIECBAgQIAAAQIECBAgQIAAAQIECBAgQIAAAQIECBAgQIAAAQIECBAgQIAAAQIECBAgQIAAAQIECBAgQIAAAQIECBAgQIAAAQIECBAgQIAAAQIECBAgQIAAAQIECBAgQIAAAQIECBAgQIAAAQIECBAgQIAAAQIECBAgQIAAAQIECBAgQIAAAQIECBAgQIAAAQIECBAgQIAAAQIECBAgQIAAAQIECBAgQIAAAQIECBAgQIAAAQIECBAgQIAAAQIECBAgQIAAAQIECBAgQIAAAQIECBAgQIAAAQIECBAgQIAAAQIECBAgQIAAAQIECBAgQIAAAQIECBAgQIAAAQIECBAgQIAAAQIECBAgQIAAAQIECBAgQIAAAQIECBAgQIAAAQIECBAgQIAAAQIECBAgQIAAAQIECBAgQIAAAQIECBAgQIAAAQIECBAgQIAAAQIECBAgQIAAAQIECBAgQIAAAQIECBAgQIAAAQIECBAgQIAAAQIECBAgQIAAAQIECBAgQIAAAQIECBAgQIAAAQIECBAgQIAAAQIECBAgQIAAAQIECBAgQIAAAQIECBAgQIAAAQIECBAgQIAAAQIECBAgQIAAAQIECBAgQIAAAQIECBAgQIAAAQIECBAgQIAAAQIECBAgQIAAAQIECBAgQIAAAQIECBAgQIAAAQIECBAgQIAAAQIECBAgQIAAAQIECBAgQIAAAQIECBAgQIAAAQIECBAgQIAAAQIECBAgQIAAAQIECBAgQIAAAQIECBAgQIAAAQIECBAgQOB4BK6pquur6plV9bKqektVvbOq3l9VH6+qz1TVl6rqjqr6c/82GjSjZtXMml0zbJbNtNk24ydUVTN3I0CAAAECBxV4UFXdWFVvrKrbFPaNBX1fC562UPhoVb2hqn68qtqYuBEgQIAAgdkFnlpV/7yqPlBVd3sV36Xob1pM3HU2Nq+pqqfMPvo2SIAAAQKLEnhIVb2gqt6j4B9dwd+0GGiPfbKqXlFVj1hUxgqWAAECBCKBZ1TV26uqvaq8qtB4/LiN2hi2sXx6lBEaEyBAgMDJCtzn7O/67UNnivppGrTPa/xkVbWxdiNAgACBhQu0YvC8s0+cK/ynWfgvjuvHLAQWftQLnwCBxQs8sare7RX/Yt/x+J2qumHxRwEAAgQILEjggVX1Sl/fW2zhP/+OQPuMwK1Vdd2C8l+oBAgQWKRA+87473vVr/hfyIHPV9WzFnlECJoAAQInLnC/s1f9X78w8Z9/Nej3ZXwG4LJxvufs3YAHnPixIDwCBAgsRuB7q+p9Cr9X/VvmwIer6vGLOToESoAAgRMVeE5V/b8tJ/7LXhm6f3nvDLTrETz7RI8JYREgQODkBW6qKm/5L694z7Vga38SaBcgciNAgACBgQTaaWDnKgS2s2zLnxso73WVAAECixVol4ltl45VtBnMmQP/tqraB0ndCBAgQOAIBVrx/5WOxf8Pz65d375X/qKz88+3K9O1D5R9d1Ud4tPladHrPazNqFk1s2bXrsvQLP9lVb2rqv6o4/j+clW1HHMjQIAAgSMSaKf0/dcHLg5frqq3VtVLzorVMZxjfvQFwFUp1YzbpZlvqapfraqvHHjM27tLbgQIECBwRALtOvBp8dumfftQYbs8cLtM8IOOKP5VV7aJYdNzVtsZ5Wcbg5+qqrdV1d0HyoFXjYKjnwQIEDh1gRcfYOL/alX9YlU97sgxNxX3bR478vA2dq/92eDNVfW1A+RD+7OEGwECBAh0FGjf89/nV/3a2/yvq6pHdoxxl11vU+Q3PWeXfR3rcx9VVW+oqjZ2m2JNHms5d+OxAugXAQIETl2gneHv9j1O8u1t5e8bDDEpaq3tKd0eU1X/fo/50U4WNFp+nNL4ioUAgYUKtE+Lf3BPk/v/rqp20aARbxYA3z5q7Yx+n9tTrry/qu7/7bt0DwECBAjsS+BNe5rQ/9PZ19D21e99b9cCYL1w+7Bg+xpf6rOu/WvX79K9BAgQIDC3QPvbaztN67rJeOp97YNj7dTBo9+mxr9qN3r8m/rfvkLYvrI594cEWy4+c9OOPUaAAAECucC1VfX7Mxf/L1bVX8m7dhRbWBXyqT+PIog9d+Kv7uGzI+1PDN+5537bPAECBBYt8PqZi///OTuJz6mgTi38q3an4nBVHH+pqj4/cy79i6t26nECBAgQmCZwQ1XdOeOk/d+r6numdeVoW60K+dSfRxvYHjrWvkXyqRnz6Y6qagsLNwIECBCYUaD9/fa3Zpys/6CqHjtj/45lU1ML/6rdscRxqH48uqo+O2Ne/deqOoZTQh/Kz34IECCwd4HnzThJt7/5n+ortVUhn/pz7wN5hDt48syfCfiJI4xRlwgQIDCkQHtF9fGZFgDtE+Cn8oG/dYM5tfCv2q3b5hLu++EZvx1wm3cBlpAyYiRA4BACf2um4t+K3Cl81W+T+aqQT/25adun/lj7iuBUt4vtfC3w1LNFfAQIHETgvTNNzO20sKd+u1iIdv3/qftcFd9/mCnX2hkC3QgQIEAgEHjGTBNyO73vg4N+jNJ014J/8fmjxLmvfn7XjB8KfNq+Omm7BAgQWILA22daAIx6bv9dx/hiQd/1/7vu7xSf364dsKvbuue3i0m5ESBAgMAEgYdX1V0zTMbt/P5Lua0rRLvctxSnq+L8tRnyruVuy2E3AgQIENhR4GUzTMLtmvCn+H3/yyh3KfbrnnvZdpd2/+Oq6isz5N8tS4MTLwECBOYQ+NgME/DSrtS2rqjvct8c43Yq25jjipMfORUMcRAgQOBQAu20v7sUrnXPbd/5f9ShOnwk+1nnsMt9RxLGUXTjkVX11Rny8ClHEY1OECBAYBCB18ww8f7iILHO2c1div26587Zl1PY1ltmyMNXnwKEGAgQIHAogQ+GE+/Xq6r9HXdpt3VFfZf7luZ1VbxPqKp7wlx831U78TgBAgQI3CvQvq9/dzjp/uZCMXcp9uueu1C2jWG3C/yss9r2vvZtgAdt3IMHCRAgQOAbAjeGE26bmP/eQi23LUqXPW+hbBvD/pkZ8tGpgTcSe5AAAQL3CrwxnHDb17eWcNa/dflyWWHf9v5121z6fe3Ve/qVwNctHVH8BAgQ2EagXU1t24K17nlv3WYnJ/qcdR673HeiLHFYvx7mpK8DxkNgAwQInLrANTNclrVd1W2pt12K/brnLtXtqrhfHi4A2ldSW267ESBAgMAlAteHE20rakv+3vW6or7LfZcMy+Lv/sEZ8nKJ30pZfOIAIEBge4FnhRPtH1bVfbbf3ck9c5div+65JwcyU0D3raovhLn5YzP1xWYIECBwkgLp+f/fGaqsK4qHvC/sfvTZiRan2+UC7w4XAK4LcLmtRwgQIFC/FE6yt4aGhyz26/YVdt8CIAXc0P4Xwtx884Zte4gAAQKLF2iv4NcVxm3ve1EouO1+9vW8sPuRXYvJ7XKBm8Pc/I3LN+0RAgQIEGinTU2K6zNCwmTfc7QNux/ZWQBs1v+RMDffs3nzHiVAgMCyBT4RTrLtKoLJbY4inmwj6Xtrm+zbAmCz/lND3/+2efMeJUCAwLIFPhtOso8N+dICmrYPu28BkAJuaN++xpeM7//asG0PESBAYPECt4eT7ENCwWSCn6Nt2P2oQLX+u10u8BfC3GxfI3QjQIAAgUsE7ggn2Qdcst1t756jiCfb2Laflz0v2bcFwGWq997/HWFutrMBuhEgQIDAJQIWAJfAbHm3BcCWUBOeZgEwAU0TAgQIbCvgTwDbSq1/ngXAepc57vUngDkUbYMAAQKXCPgQ4CUwW95tAbAl1ISn+RDgBDRNCBAgsK2ArwFuK7X+eRYA613muNfXAOdQtA0CBAhcIuBEQJfAbHm3BcCWUBOe5kRAE9A0IUCAwLYC6amAb9p2R5c8Ly2gaftLurX13b33v3VHB3zii8NvATgV8ICDrssECBxOwMWAMmsLgMxvU2sXA9qk4zECBAiEAi4HnAFaAGR+m1q7HPAmHY8RIEAgFHhm+DbrH1XVfcI+jNzcAmA/o3ffqvpimJs/up+u2SoBAgROQ+AJ4STbCuBTToNiUhQWAJPYrmz0QzPk5fdduRdPIECAwIIFrqmqdsrUpJDdsmC/xK21dVsv8PIwJ79aVS233QgQIEBgg8Bt4WT7qxu2feoPWQDsZ4TfHubkR/bTLVslQIDAaQm8IZxsv1JVDz4tkq2jsQDYmmrrJ7ZcajmV2L526715IgECBBYs8OPhZNsm6r+/UL+kSLW2bt8u8A9myMcf+/bNuocAAQIELgpcV1V3hZPub13c6EL+bwEw/0D/TpiLLZdbTrsRIECAwBYCHwgn3a9X1eO32M+pPcUCYN4Rvb6q7glz8b3zdsnWCBAgcNoC/yycdFshfPNpE62NzgJgLcvkO9MzU7bxePXkvWtIgACBBQo8eYYFQPs64aMWZmcBMN+AP2aGr6S28bhhvi7ZEgECBJYh8LszLAJevwyqb0ZpAfBNiviXW2fIvw/HvbABAgQILFDgpTNMwF+uqiWdgc0CYJ4DpZ2Rsp28J/Vc8kmp5hkJWyFAYJECD5vh2wBtAl/SZVjTgrXIRFsT9K/PUPzbp/8fvmbb7iJAgACBLQTSM7CtCuKzt9jXKTxlFe/Un6dgkMbw3BmKf/P/tbQj2hMgQGDJAk+faTL+XFV91wIgpxb+VbsFEG0M8bur6vMz5dzTNu7JgwQIECBwpUD7HvWqQCU/37aASwUnPq3tkm/tMtL/caZce/+SIcVOgACBuQRunGlSbgXuJXN16ki3YwEwfWDm+NDpyt+pf6ePg5YECBD4pkB7ZfaxmRYB7dwAP/zNLZ/eL6sCNPXn6YlsF9Ffr6o7Zsqxjy7gnabtVD2LAAECMwj85EyTcyuMt1dVO9HQKd6mFv5Vu1M0uSqmdqKeL82YX8+5aoceJ0CAAIHtBdq7AL854yT9B1X12O13P8wzV4V86s9hAp2po+1sf+0DolO9Lrb7ba/+ZxoZmyFAgMA5gfaq/c4ZJ+tPVdX3ntv+Kfx6sSDt+v9TMNg2hjb2/2PGfGp/QviBbXfueQQIECCwm8BrZ5ywW3H8v1X11N26cNTP3rXgX3z+UQc3Y+eeNOPX/VaGr5mxfzZFgAABAhcErt3DxN0+E3AqHwxcFaOpPy9wn+R/2wf+5vybf7P+bFU98CS1BEWAAIEjEnjWDNdov1gg27cD2lcE22cNRr5djGvX/48c+1V9b2Pbvuo316f9V7b3VNWPXrVzjxMgQIDAPALtKn+rCXjOn2+tqnY2uFFvqcWocV/V7wdV1a/sKWd+7qqde5wAAQIE5hO4f1W1s62lBW9d+/Z27qjXDlgXzy73zTdCx7Oldm7/uU7ve9HyPVV1v+MJVU8IECCwDIHvqaov7mkR0Cb6durgxw1GebFA7fr/wcLd2N3HV9UcV/W7zLB9juAUv0q6EdWDBAgQOBaB9kr963tcBHylqt5UVY8+loCv6MdlxWrb+6/Y/BAPt+/2/3xVfXWPeXF3VT1zCA2dJECAwAkLvGiPE/2qcLYPCb6lqp5w5I6r/k79eeThbeze9VX1S3v4kN86yxdu7IkHCRAgQOBgAq86wCJgVQg+UlW3VNVDDxbd9jta9XHqz+33dBzPfHBV/VRVvXsP3wy5zPCfHkfoekGAAAECK4H2Cv2ySXsf97e3mNvfmNtXy36wqu676kjHn2mcHbu+1a6b8Q9V1cuq6u17fpt/neW/2qqXnkSAAAECBxW4pqp++cCLgPNF4gtV9Z+r6heq6uaq+ptV9Zerqn0Y7SFV9YADaJzvz5TfD9DFjbtoRs2qmTW7HzmzbKbtVf4+P/R5lde/q6qWY24ECBAgcIQCbYJur9Kumsw9zmiXHPg3vu53hEe7LhEgQGCNwCssAiyCZsoBJ/pZc4C5iwABAscs0L4dsM+vCO7yCtJzx3vHoX3V72ePOcH1jQABAgQuF7ixqtrFfhRgBrvkQPusge/5X35ceYQAAQJDCLQzBrZTtu5SADx3uV4fGvAMkEMciDpJgACBHgLtfO2v9CcBi6ANC8F2Vb9bq6pdZ8KNAAECBE5MoL2t+7kNRcAr/2W+8m8XgHJJ3xM72IVDgACBiwIPPHs3oJ3eV8FftsGdZ6/6r72YJP5PgAABAqcr8P1V9S6LgMUugn67qp58uuktMgIECBC4SuAnquo2C4HFLAQ+WlXPuSopPE6AAAECyxH4a1X1XywETnYh8N6qal8Lvc9yUlqkBAgQILCLwNOq6m1VdZfFwPCLgTaGbSzbmLoRIECAAIGtBNpFaV7gHAJDLgI+WVXtdNAP32qkPYkAAQIECFwi0D4s9uqqep93Bo5yQdBe6be3+F9VVU+6ZAzdTYAAAQIEIoHrzk4T+/qq+khV+Trh4b9K2Mw/XFWvOxsLX+OLUlpjAgQIEJgi0C5B3K5f304k84/OLkf8jrNXpB+rqs+cXY/gDp8puPLdg2bUrt3QzJpdO4Vzs3xzVd1yZvy4qrrvlIHShgABAgQIECBAgAABAgQIECBAgAABAgQIECBAgAABAgQIECBAgAABAgQIECBAgAABAgQIECBAgAABAgQIECBAgAABAgQIECBAgAABAgQIECBAgAABAgQIECBAgAABAgQIECBAgAABAgQIECBAgAABAgQIECBAgAABAgQIECBAgAABAgQIECBAgAABAgQIECBAgAABAgQIECBAgAABAgQIECBAgAABAgQIECBAgAABAgQIECBAgAABAgQIECBAgAABAgQIECBAgAABAgQIECBAgAABAgQIECBAgAABAgQIECBAgAABAgQIECBAgAABAgQIECBAgAABAgQIECBAgAABAgQIECBAgAABAgQIECBAgAABAgQIECBAgAABAgQIECBA4DgEHlFVf7eqbq2qd1XVp6vqS1V1Z1X9uX8M5IAckANyQA7snAOthrZa2mpqq62txj6/qlrN7Xp7aFW9pKo+bFB3HlSLIgtDOSAH5IAcSHLgQ1X14qpqtfhgt8dU1c9X1ZcVfoVfDsgBOSAH5EDXHPizqnpTVT16n6uA+1fVLVX1pwa762AnK0ZtveKQA3JADpxmDrQX5a+squ+YeyHwxKr6mMKv8MsBOSAH5IAcOOoc+N2q+otzLQL+tlf9Rz3YVvOnuZo3rsZVDsiBqTnwJ1X13HQR8NNVdZfVngWAHJADckAOyIGhcuDuqvrZqYuAFxrsoQZ76kpRO68y5IAckAOnmwPtmwI73drb/m31ICkYyAE5IAfkgBwYNwdaLX/OtiuA66vqjxV/ix85IAfkgByQAyeRA+3bez9w1SLgAT7tfxKDbbU+7mrd2Bk7OSAH9pEDt1VV+zr/pbd/YrVnASAH5IAckANy4CRz4B9fVv3bWYTaGYX2sfKwTa5yQA7IATkgB/rmQPtTwCPXLQLa6X0NDgM5IAfkgByQA6ebA2+4uABoFxNwbv/THXAHs7GVA3JADsiBlgPtnf5vuYBQu6qf5GAgB+SAHJADcuD0c+Cm8+8CzHlJ34+fXTToyVX1ned34ncCBAgQIEBga4FWQ1stbRfi+8SML9Q/uOpB+0DAPTNs+GtV9Q+r6r6rDftJgAABAgQIzCJwTVW1V+53zFCvW81/WOvV82fYWCv+T5slRBshQIAAAQIELhP4GzMtAp7XdnDrDAuAyRccuCxC9xMgQIAAAQJrBW6eoW6/qW35XeGG2t/8ve2/dozcSYAAAQIEZhdofw74vbB2v6P16jPhRtqHE9wIECBAgACBwwm8NKzdn25dvT3cyJMOF689ESBAgAABAlV1Q1i7v9gU008UXmsoCBAgQIAAgYMKXBcuANqH9+MTAB00YjsjQIAAAQIEviGQnrTJAkAiESBAgACBAQUsAAYcNF0mQIAAAQKpgAVAKqg9AQIECBAYUMACYMBB02UCBAgQIJAKWACkgtoTIECAAIEBBSwABhw0XSZAgAABAqmABUAqqD0BAgQIEBhQYPgFQBxAOGjp/rXPzyXBkKEc6JMD4fSpeWeB9Ljpfh6AOIBwANL9a99n4uLOXQ7kORBOn5p3FkiPAQuAGc6GmA6C9vlExpChHNg9BzrXL7sPBdKctwCwAIhzIE1C7XefuJkxmyMHwvqjeWeBNAfiyT+NPw4g7EC6f+1NxHJADoyaA+H0qXlngTTvLAC8AxDnQJqE2iugcqBPDnSuX3YfCqTHTTz5h/0ffv/pAGjfZ+Ljzl0OpLO39r0F0hwevgCnA5ACaq+QyAE5MGoOpPOn9n0F0ryzAPAngDgH0iTUXgGVA31yoG/5svdUID1u4sm/ewBhB1JA7ftMXNy5y4E8B8LpU/POAukxYAHgHYA4B9Ik1D6fyBkynJIDneuX3YcCU8b8fJt48g/7P/z+z2P63SQsB+TASDmQzt/a9xVIc234Apzyp4Dam/DlgBwYNQfS+VP7vgJp3lkA+BNAnANpEmqvgMqBPjnQt3zZeyqQHjfx5N89gLADKaD2fSYu7tzlQJ4D4fSpeWeB9BiwAPAOQJwDaRJqn0/kDBlOyYHO9cvuQ4EpY36+TTz5h/3XnAABAgQIEJggcL6YT/ndAmACuiYECBAgQKC3wJSif76NBUDvEbR/AgQIECAwQeB8MZ/yuwXABHRNCBAgQIBAb4EpRf98GwuA3iNo/wQIECBAYILA+WI+5XcLgAnomhAgQIAAgd4CU4r++TYWAL1H0P4JECBAgMAEgfPFfMrvFgAT0DUhQIAAAQK9BaYU/fNtLAB6j6D9EyBAgACBCQLni/mU3y0AJqBrQoAAAQIEegtMKfrn21gA9B5B+ydAgAABAhMEzhfzKb9bAExA14QAAQIECPQWmFL0z7exAOg9gvZPgAABAgQmCJwv5lN+twCYgK4JAQIECBDoLTCl6J9vYwHQewTtnwABAgQITBA4X8yn/G4BMAFdEwIECBAg0FtgStE/36b7AuB8Z/xe8XgwZCgH5MC2OZAWsG3343nrc7K3f1xwegcgsdYnFhcuckAOXJUD5u++OdLb3wKg+ibAVQeox42PHJAD+8qB3gVoX3GNst3e/hYAFgBxDoxysOmnQioHvjUHehegpY9Hb/948u8dwNITSPzfOqHx4CEHts8B8/f2VvvIq97+FgDeAYhzYB8Hhm32nZj4L8O/dwFaep719o8n/94BLD2BxL+Mido4G+d95ID5u29e9fa3APAOQJwD+5iYbLPvxMR/Gf69C9DS86y3fzz59w5g6Qkk/mVM1MbZOO8jB8zfffOqt78FgHcA4hzYx8Rkm30nJv7L8O9dgJaeZ73948m/dwBLTyDxL2OiNs7GeR85YP7um1e9/S0AvAMQ58A+Jibb7Dsx8V+Gf+8CtPQ86+0fT/69A1h6Aol/GRO1cTbO+8gB83ffvOrtbwHgHYA4B/YxMdlm34mJ/zL8exegpedZb/948u8dwNITSPzLmKiNs3HeRw6Yv/vmVW9/CwDvAMQ5sI+JyTb7Tkz8l+HfuwAtPc96+8eTfxqA9gQIECBAgMDuAukCygJgd3MtCBAgQIBAdwELgO5DoAMECBAgQODwAhYAhze3RwIECBAg0F3AAqD7EOgAAQIECBA4vIAFwOHN7ZEAAQIECHQXsADoPgQ6QIAAAQIEDi9gAXB4c3skQIAAAQLdBSwAug+BDhAgQIAAgcMLWAAc3tweCRAgQIBAdwELgO5DoAMECBAgQODwAhYAhze3RwIECBAg0F3AAqD7EOgAAQIECBA4vIAFwOHN7ZEAAQIECHQXsADoPgQ6QIAAAQIEDi9gAXB4c3skQIAAAQLdBYZfAMQBhEOQ7l/7ii8pzZDhUnMgnL7iY6/3/pc67qu4e/sPn0C9AVcD6aciJgfkwK450Hv+6r3/Xb1O7fm9/S0AyqR1ageVeOT0KDnQvQCEHRjF+Vj7GfLn9TuF6R5A2IE0fu0VGzkgB6bmQDh95QUg7MDUuLW795gJ+fPxTweiewBhB9L4tTf5ywE5MDUHwukrLwBhB6bGrZ0FwDdSL02EMH/jAyjtv/aKhxxYbg70nr9673/pud/bPy6A3QMIO7D0BBT/couPse8/9uH0Nfz8vfQc7D7+6QB0DyDsQBq/9v0nUWNgDEbNgXD6sgAY/EPc3cc/PXC6BxB2II1fe8VHDsiBqTkQTl8WABYAUQ5EjVvSp7epB86qXe/9r/rhpyIgB+TArjnQe/7qvf9dvU7t+b39LQAGX0Ge2gEhHkV0STnQvQCEHVjSWO0j1pA/r99pUN0DCDuQxq+9giUH5MDUHAinr7wAhB2YGrd29x4zIX8+/ulAdA8g7EAav/YmfzkgB6bmQDh95QUg7MDUuLWzAPhG6qWJEOZvfACl/dde8ZADy82B3vNX7/0vPfd7+8cFsHsAYQeWnoDiX27xMfb9xz6cvoafv5eeg93HPx2A7gGEHUjj177/JGoMjMGoORBOXxYAg3+Iu/v4pwdOGoD2BAgQIDBNwPw9ze1UWsXjH2/gVCTFQYAAgcEEzN+DDdjM3Y3HP97AzAHZHAECBAhsJ2D+3s7pVJ8Vj3+8gVOVFRcBAgSOXMD8feQDtOfuxeMfb2DPAdo8AQIECKwXMH+vd1mkIC9HAAAMZklEQVTKvfH4xxtYirQ4CRAgcGQC5u8jG5ADdyce/3gDBw7Y7ggQIEDgXgHz97IzIR7/eAPL9hc9AQIEugmYv7vRH8WO4/GPN3AUDDpBgACB5QmYv5c35ucjjsc/3sD53vidAAECBA4mYP4+GPVR7ige/3gDR8miUwQIEDh9AfP36Y/xpgjj8Y83sKl3HiNAgACBvQmYv/dGO8SG4/GPNzAEk04SIEDg9ATM36c3prtEFI9/vIFdeuu5BAgQIDCbgPl7NsohNxSPf7yBIdl0mgABAuMLmL/HH8Mkgnj84w0kvdeWAAECBCYLmL8n051Ew3j84w2EjOn+0/Zh9yvdv/bFsBiMehyMPn+k/de+r0B63MSTbxp+GkDafvT+p/Frr/jKgek5MPr8kfZf+74C6bFrARCOXzoA2k+ffNmx650D4fQRz79p/Gn/te8rEI9/vIEw/nT/afuw+90P4DR+7RVROTA9B0afP9L+a99XID124wKWhp8GkLYfvf9p/NpPn/zZsRt9/kj7r31fgXQOsgAIxy8dAO0VETkwbg6E00c8/6a5k/Zf+74C8fjHGwjjT/eftg+73/0ATuPXftziY+z6j93o80faf+37CqRzQFzA0vDTANL2o/c/jV/7/kXEGIw7BqPPH2n/te8rkM4dFgDh+KUDoP24k7+xM3bh9BHPv2kOpv3Xvq9APP7xBsL40/2n7cPudz+A0/i1V8TkwPQcGH3+SPuvfV+B9NiNC1gafhpA2n70/qfxaz998mfHbvT5I+2/9n0F0jnIAiAcv3QAtFdE5MC4ORBOH/H8m+ZO2n/t+wrE4x9vIIw/3X/aPux+9wM4jV/7cYuPses/dqPPH2n/te8rkM4BcQFLw08DSNuP3v80fu37FxFjMO4YjD5/pP3Xvq9AOndYAITjlw6A9uNO/sbO2IXTRzz/pjmY9l/7vgLx+McbCONP95+2D7vf/QBO49deEZMD03Ng9Pkj7b/2fQXSYzcuYH3Dt3cCBAgQWKpAXAAHh4vjjzcwOKDuEyBAgMCYAkuvX3H88QbGzBu9JkCAAIHBBZZev+L44w0MnkC6T4AAAQJjCiy9fsXxxxsYM2/0mgABAgQGF1h6/YrjjzcweALpPgECBAiMKbD0+hXHH29gzLzRawIECBAYXGDp9SuOP97A4Amk+wQIECAwpsDS61ccf7yBMfNGrwkQIEBgcIGl1684/ngDgyeQ7hMgQIDAmAJLr19x/PEGxswbvSZAgACBwQWWXr/i+OMNDJ5Auk+AAAECYwosvX7F8ccbGDNv9JoAAQIEBhdYev2K4483MHgC6T4BAgQIjCmw9PoVxx9vYMy80WsCBAgQGFxg6fUrjj/ewOAJpPsECBAgMKbA0utXHH+8gTBv0v33bh+GX737b/9lDGq5Bks/ftP40/ajzz9p/Gn71C+e/HoHkAKk7Zcef+qn/XKL7zGM/dKP3zT+tP0x5EDShzT+tH3S99bWAiA06D2AaQJonx8DDMc1XPrxm8afth/92EnjT9unfhYAFgBxDqRJqP24BXT0ses9Aff2S+NP2/eOP91/Gn/aPu5/vIEwgnT/vduH4Su+4QKs9/jb/9iLl6Ufv2n8afvRj580/rR96hcXoN4BpABp+6XHn/ppP3YBHX38ln78pvGn7ZeeP739LADCV6C9B3D0A0j/LQB65sDSj980/rR9z7GfY99p/Gn7NAYLAAuAOAfSJNTeIqBXDvSegHvFvdpvGn/aftWPUX+m8aftU7d48u8dQAqQtl96/Kmf9op/zxxY+vGbxp+27zn2c+w7jT9tn8ZgAeAdgDgH0iTU3iKgVw70noB7xb3abxp/2n7Vj1F/pvGn7VO3ePLvHUAKkLZfevypn/aKf88cWPrxm8aftu859nPsO40/bZ/GYAHgHYA4B9Ik1N4ioFcO9J6Ae8W92m8af9p+1Y9Rf6bxp+1Tt3jy7x1ACpC2X3r8qZ/2in/PHFj68ZvGn7bvOfZz7DuNP22fxmAB4B2AOAfSJNTeIqBXDvSegHvFvdpvGn/aftWPUX+m8aftU7d48u8dQAqQtl96/Kmf9op/zxxY+vGbxp+27zn2c+w7jT9tn8ZgAeAdgDgH0iTU3iKgVw70noB7xb3abxp/2n7Vj1F/pvGn7VO3ePJPA9CeAAECBAgQ2F3AAmB3My0IECBAgMDwAhYAww+hAAgQIECAwO4CFgC7m2lBgAABAgSGF7AAGH4IBUCAAAECBHYXsADY3UwLAgQIECAwvIAFwPBDKAACBAgQILC7gAXA7mZaECBAgACB4QXiBcAd4YlwrhueUAAECBAgQGAsgQeFtftrLdzbw408aSwzvSVAgAABAsML3BDW7i80gf8ZbuSW4RkFQIAAAQIExhJ4aVi7P93CfWe4kU9U1TVjuektAQIECBAYVqDV3E+Gtfs3WvS3hhtpH0K4aVhGHSdAgAABAmMJvGSGuv2mFvLzZ9hQ+yDh08fy01sCBAgQIDCcwDOq6s4Z6vbfaZE/oqrumWFjbRFwsz8HDJdMOkyAAAECxy/Q3vZvr/znKP6t5j9sFfKHZlgArL6P+HtV1T6c0D6heO1qB34SIECAAAECOwm0Gtpq6ctm+Jv/qka3n+8/34sXz7gAOL8Tv1cxYCAH5IAckAPHlAMvOr8AeGhV/ZlFgGItB+SAHJADcuCkc6DV+lbzv+XWPhF4TCsUfTEeckAOyAE5IAfmzYHXf0vlP/vPo70LYAFkESgH5IAckAMnmwN/cvbB/3VrgHqFgT/ZgbeKnncVzZOnHJADo+XAy9dW/rM7719Vt1kEWATIATkgB+SAHDipHPhoVbUav/F2fVX9sYE/qYEfbZWqv15ZyQE5IAfmy4E/raonbqz85x58blXdbRFgESAH5IAckANyYOgcaLX82efq+1a/vsCgDz3oVs/zrZ5ZspQDcmDEHGhn/PuZrSr+mif9dFXdZSFgISAH5IAckANyYKgcaK/8X7imru9013Oqqn11YMTVjz4bNzkgB+SAHFhaDrTP8e38tv9lK4Pv9+0ACyCLQDkgB+SAHDj6HGif9m8f5p/1dr+qusW7AUc/+Etb6YrXqzs5IAfkQNWXq+qVVfWAWSv/hY09sqre6KyBFgJeCcgBOSAH5ED3HGjn9n/DpjP8Xajhs/y3XUzg5qr6QFW1TxpagTGQA3JADsgBObD/HGg1t13S96aqesgsFT3YyMOq6nlV1S4o9I6q+lRV3V5Vd1gYWBjJATkgB+SAHJiUA62Gtlraamqrra3Gtlrbaq4bAQIECBAgQIAAAQIECBAgQIAAAQIECBAgQIAAAQIECBAgQIAAAQIECBAgQIAAAQIECBAgQIAAAQIECBAgQIAAAQIECBAgQIAAAQIECBAgQIAAAQIECBAgQIAAAQIECBAgQIAAAQIECBAgQIAAAQIECBAgQIAAAQIECBAgQIAAAQIECBAgQIAAAQIECBAgQIAAAQIECBAgQIAAAQIECBAgQIAAAQIECBAgQIAAAQIECBAgQIAAAQIECBAgQIAAAQIECBAgQIAAAQIECBAgQIAAAQIECBAgQIAAAQIECBAgQIAAAQIECBAgQIAAAQIECBAgQIAAAQIECBAgQIAAAQIECBAgQIAAAQIECBAgQIAAAQIECBAgQIAAAQIECBAgQIAAAQIECBAgQIAAAQIECBAgQIAAAQIECBAgQIAAAQIECBAgQIAAAQIECBAgQIAAAQIECBAgQIAAAQIECBAgQIAAAQIECBAgQIAAAQIECBAgQIAAAQIECBAgQIAAAQIECBAgQIAAAQIECBAgQIAAAQIECBAgQIAAAQIECBAgQIAAAQIECBAgQIAAAQIECBAgQIAAAQIECBAgQIAAAQIECBAgQIAAAQIECBAgQIAAAQIECBAgQIAAAQIECBAgQIAAAQIECBAgQIAAAQIECBAgQIAAAQIECBAgQIAAAQIECBAgQIAAAQIECBAgQIAAAQIECBAgQIAAAQIECBAgQIAAAQIECBAgQIAAAQIECBAgQIAAAQIECBAgQIAAAQIECBAgQIAAAQIECBAgQIAAAQIECBAgQIAAAQIECBAgQIAAAQIECBAgQIAAAQIECBAgQIAAAQIECBAgQIAAAQIECBAgQIAAAQIECBAgQIAAAQIECBAgQIAAAQIECBAgQIAAAQIECBAgQIAAAQIECBAgQIAAAQIECBAgQIAAAQIECBAgQIAAAQIECBAgQIAAAQJHLPD/ASweO8G/5/7sAAAAAElFTkSuQmCC;fontStyle=1" parent="1" vertex="1">
                    <mxGeometry x="-119.35" y="2009" width="52" height="52" as="geometry"/>
                </mxCell>
                <mxCell id="82" value="" style="shape=image;verticalLabelPosition=bottom;labelBackgroundColor=default;verticalAlign=top;aspect=fixed;imageAspect=0;image=data:image/png,iVBORw0KGgoAAAANSUhEUgAAAgAAAAIACAYAAAD0eNT6AAAAAXNSR0IArs4c6QAAIABJREFUeAHt3cFuZFtubVH9/0/b3WpEJzQBrbuTowADRiK5FzVIFU/6Nd7Pj/8QIECAAAECBAgQIECAAAECBAgQIECAAAECBAgQIECAAAECBAgQIECAAAECBAgQIECAAAECBAgQIECAAAECBAgQIECAAAECBAgQIECAAAECBAgQIECAAAECBAgQIECAAAECBAgQIECAAAECBAgQIECAAAECBAgQIECAAAECBAgQIECAAAECBAgQIECAAAECBAgQIECAAAECBAgQIECAAAECBAgQIECAAAECBAgQIECAAAECBAgQIECAAAECBAgQIECAAAECBAgQIECAAAECBAgQIECAAAECBAgQIECAAAECBAgQIECAAAECBAgQIECAAAECBAgQIECAAAECBAgQIECAAAECBAgQIECAAAECBAgQIECAAAECBAgQIECAAAECBAgQIECAAAECBAgQIECAAAECBAgQIECAAAECBAgQIECAAAECBAgQIECAAAECBAgQIECAAAECBAgQIECAAAECBAgQIECAAAECBAgQIECAAAECBAgQIECAAAECBAgQIECAAAECBAgQIECAAAECBAgQIECAAAECBAgQIECAAAECBAgQIECAAAECBAgQIECAwG8F/u/n58f/MLADdsAO2AE7cGsHHH8fQHbADtgBO2AHDu6AoR8cuq/8W1/55m3edsAOfNoBHwA+AOyAHbADdsAOHNwBQz849E9fgv7MvxDsgB2wA7d2wAeADwA7YAfsgB2wAwd3wNAPDt1X/q2vfPM2bztgBz7tgA8AHwB2wA7YATtgBw7ugKEfHPqnL0F/5l8IdsAO2IFbO+ADwAeAHbADdsAO2IGDO2DoB4fuK//WV755m7cdsAOfdsAHgA8AO2AH7IAdsAMHd8DQDw7905egP/MvBDtgB+zArR3wAeADwA7YATtgB+zAwR0w9IND95V/6yvfvM3bDtiBTzvgA8AHgB2wA3bADtiBgzuQh/7jPwQIECBAgMCfC3z6V/03f+YD4M9HJpAAAQIECHSBb479p7/rA6DPwAsECBAgQODPBT4d9W/+zAfAn49MIAECBAgQ6ALfHPtPf9cHQJ+BFwgQIECAwJ8LfDrq3/yZD4A/H5lAAgQIECDQBb459p/+rg+APgMvECBAgACBPxf4dNS/+TMfAH8+MoEECBAgQKALfHPsP/1dHwB9Bl4gQIAAAQJ/LvDpqH/zZz4A/nxkAgkQIECAQBf45th/+rs+APoMvECAAAECBP5c4NNR/+bPfAD8+cgEEiBAgACBLvDNsf/0d30A9Bl4gQABAgQI/LnAp6P+zZ/5APjzkQkkQIAAAQJd4Jtj/+nv+gDoM/ACAQIECBD4c4FPR/2bP/MB8OcjE0iAAAECBLrAN8f+09+dfwB8asqf/eS5MGRoB+yAHfhv70D9BKjzzYdm/QNUAPX/7V8Q8zEfO2AH/tUdWN9PHwA/frn+1V8uP5fdtgN24L+8Az4AHOD8EfZfXnC9+S9gO2AH7MDnHfAB4APAB4AdsAN2wA4c3AEfAAeH7mv489cwFy52wA5c2gEfAD4AfPnbATtgB+zAwR3wAXBw6Je+cP2s/kVnB+yAHfi8Az4AfAD48rcDdsAO2IGDO+AD4ODQfQ1//hrmwsUO2IFLO+ADwAeAL387YAfsgB04uAM+AA4O/dIXrp/Vv+jsgB2wA593wAeADwBf/nbADtgBO3BwB3wAHBy6r+HPX8NcuNgBO3BpB3wA+ADw5W8H7IAdsAMHd8AHwMGhX/rC9bP6F50dsAN24PMO+ACIHwAVUD0BAgQIEPiNQP2w+U3m/9bk/PzA/3bzi/99nf+LlpUQIECAAIH8/2xTCfP9zA/En2CdH9tXToAAAQJHBdb3K+fnB+Lg1/mxfeUECBAgcFRgfb9yfn4gDn6dH9tXToAAAQJHBdb3K+fnB+Lg1/mxfeUECBAgcFRgfb9yfn4gDn6dH9tXToAAAQJHBdb3K+fnB+Lg1/mxfeUECBAgcFRgfb9yfn4gDn6dH9tXToAAAQJHBdb3K+fnB+Lg1/mxfeUECBAgcFRgfb9yfn4gDn6dH9tXToAAAQJHBdb3K+fnB+Lg1/mxfeUECBAgcFRgfb9yfn4gDn6dH9tXToAAAQJHBdb3K+fnB+Lg1/mxfeUECBAgcFRgfb9yfn4gDn6dH9tXToAAAQJHBdb3K+fnB+Lg1/mxfeUECBAgcFRgfb9yfn4gDn6dH9tXToAAAQJHBdb3K+fnB+Lg1/mxfeUECBAgcFRgfb9yfn4gDn6dH9tXToAAAQJHBdb3K+fnB+Lg1/mxfeUECBAgcFRgfb9yfn4gDn6dH9tXToAAAQJHBdb3K+fnB+Lg1/mxfeUECBAgcFRgfb9yfn4gDn6dH9tXToAAAQJHBdb3K+fnB+Lg1/mxfeUECBAgcFRgfb9yfn4gDn6dH9tXToAAAQJHBdb3K+fnB+Lg1/mxfeUECBAgcFRgfb9yfn4gDn6dH9tXToAAAQJHBdb3K+fnB+Lg1/mxfeUECBAgcFRgfb9yfn4gDn6dH9tXToAAAQJHBdb3K+fnB+Lg1/mxfeUECBAgcFRgfb9yfn4gDn6dH9tXToAAAQJHBdb3K+fnB+Lg1/mxfeUECBAgcFRgfb9yfn4gDn6dH9tXToAAAQJHBdb3K+fnB+Lg1/mxfeUECBAgcFRgfb9yfn4gDn6dH9tXToAAAQJHBdb3K+fnB+Lg1/mxfeUECBAgcFRgfb9yfn4gDn6dH9tXToAAAQJHBdb3K+fnB+Lg1/mxfeUECBAgcFRgfb9yfn4gDn6dH9tXToAAAQJHBdb3K+fnB+Lg1/mxfeUECBAgcFRgfb9yfn4gDn6dH9tXToAAAQJHBdb3K+fnB+Lg1/mxfeUECBAgcFRgfb9yfn4gDn6dH9tXToAAAQJHBdb3K+fnB+Lg1/mxfeUECBAgcFRgfb9yfn4gDn6dH9tXToAAAQJHBdb3K+fnB+Lg1/mxfeUECBAgcFRgfb9yfn4gDn6dH9tXToAAAQJHBdb3K+fnB+Lg1/mxfeUECBAgcFRgfb9yfn4gDn6dH9tXToAAAQJHBdb3K+fnB+Lg1/mxfeUECBAgcFRgfb9yfn4gDn6dH9tXToAAAQJHBdb3K+fnB+Lg1/mxfeUECBAgcFRgfb9yfn4gDn6dH9tXToAAAQJHBdb3K+fnB+Lg1/mxfeUECBAgcFRgfb9yfn4gDn6dH9tXToAAAQJHBdb3K+fnB+Lg1/mxfeUECBAgcFRgfb9yfn4gDn6dH9tXToAAAQJHBdb3K+fnB+Lg1/mxfeUECBAgcFRgfb9yfn4gDn6dH9tXToAAAQJHBdb3K+fnB+Lg1/mxfeUECBAgcFRgfb9yfn4gDn6dH9tXToAAAQJHBdb3K+fnB+Lg1/mxfeUECBAgcFRgfb9yfn4gDn6dH9tXToAAAQJHBdb3K+fnB+Lg1/mxfeUECBAgcFRgfb9yfn4gDn6dH9tXToAAAQJHBdb3K+fnB+Lg1/mxfeUECBAgcFRgfb9yfn4gDn6dH9tXToAAAQJHBdb3K+fnB+Lg1/mxfeUECBAgcFRgfb9yfn4gDn6dH9tXToAAAQJHBdb3K+fnB+Lg1/mxfeUECBAgcFRgfb9yfn4gDn6dH9tXToAAAQJHBdb3K+fnB+Lg1/mxfeUECBAgcFRgfb9yfn4gDn6dH9tXToAAAQJHBdb3K+fnB+Lg1/mxfeUECBAgcFRgfb9yfn4gDn6dH9tXToAAAQJHBdb3K+fnB+Lg1/mxfeUECBAgcFRgfb9yfn4gDn6dH9tXToAAAQJHBdb3K+fnB+Lg1/mxfeUECBAgcFRgfb9yfn4gDn6dH9tXToAAAQJHBdb3K+fnB+Lg1/mxfeUECBAgcFRgfb9yfn4gDn6dH9tXToAAAQJHBdb3K+fnB+Lg1/mxfeUECBAgcFRgfb9yfn4gDn6dH9tXToAAAQJHBdb3K+fnB+Lg1/mxfeUECBAgcFRgfb9yfn4gDn6dH9tXToAAAQJHBdb3K+fnB+Lg1/mxfeUECBAgcFRgfb9yfn4gDn6dH9tXToAAAQJHBdb3K+fnB+Lg1/mxfeUECBAgcFRgfb9yfn4gDn6dH9tXToAAAQJHBdb3K+fnB+Lg1/mxfeUECBAgcFRgfb9yfn4gDn6dH9tXToAAAQJHBdb3K+fnB+Lg1/mxfeUECBAgcFRgfb9yfn4gDn6dH9tXToAAAQJHBdb3K+fnB+Lg1/mxfeUECBAgcFRgfb9yfn4gDn6dH9tXToAAAQJHBdb3K+fnB+Lg1/mxfeUECBAgcFRgfb9yfn4gDn6dH9tXToAAAQJHBdb3K+fnB+Lg1/mxfeUECBAgcFRgfb9yfn4gDn6dH9tXToAAAQJHBdb3K+fnB+Lg1/mxfeUECBAgcFRgfb9yfn4gDn6dH9tXToAAAQJHBdb3K+fnB+Lg1/mxfeUECBAgcFRgfb9yfn4gDn6dH9tXToAAAQJHBdb3K+fnB+Lg1/mxfeUECBAgcFRgfb9yfn4gDn6dH9tXToAAAQJHBdb3K+fnB+Lg1/mxfeUECBAgcFRgfb9yfn4gDn6dH9tXToAAAQJHBdb3K+fnB+Lg1/mxfeUECBAgcFRgfb9yfn4gDn6dH9tXToAAAQJHBdb3K+fnB+Lg1/mxfeUECBAgcFRgfb9yfn4gDn6dH9tXToAAAQJHBdb3K+fnB+Lg1/mxfeUECBAgcFRgfb9yfn4gDn6dH9tXToAAAQJHBdb3K+fnB+Lg1/mxfeUECBAgcFRgfb9yfn4gDn6dH9tXToAAAQJHBdb3K+fnB+Lg1/mxfeUECBAgcFRgfb9yfn4gDn6dH9tXToAAAQJHBdb3K+fnB+Lg1/mxfeUECBAgcFRgfb9yfn4gDn6dH9tXToAAAQJHBdb3K+fnB+Lg1/mxfeUECBAgcFRgfb9yfn4gDn6dH9tXToAAAQJHBdb3K+fnB+Lg1/mxfeUECBAgcFRgfb9yfn4gDn6dH9tXToAAAQJHBdb3K+fnB+Lg1/mxfeUECBAgcFRgfb9yfn4gDn6dH9tXToAAAQJHBdb3K+fnB+Lg1/mxfeUECBAgcFRgfb9yfn4gDn6dH9tXToAAAQJHBdb3K+fnB+Lg1/mxfeUECBAgcFRgfb9yfn4gDn6dH9tXToAAAQJHBdb3K+fnB+Lg1/mxfeUECBAgcFRgfb9yfn4gDn6dH9tXToAAAQJHBdb3K+fnB+Lg1/mxfeUECBAgcFRgfb9yfn4gDn6dH9tXToAAAQJHBdb3K+fnB+Lg1/mxfeUECBAgcFRgfb9yfn4gDn6dH9tXToAAAQJHBdb3K+fnB+Lg1/mxfeUECBAgcFRgfb9yfn4gDn6dH9tXToAAAQJHBdb3K+fnB+Lg1/mxfeUECBAgcFRgfb9yfn4gDn6dH9tXToAAAQJHBdb3K+fnB+Lg1/mxfeUECBAgcFRgfb9yfn4gDn6dH9tXToAAAQJHBdb3K+fnB+Lg1/mxfeUECBAgcFRgfb9yfn4gDn6dH9tXToAAAQJHBdb3K+fnB+Lg1/mxfeUECBAgcFRgfb9yfn4gDn6dH9tXToAAAQJHBdb3K+fnB+Lg1/mxfeUECBAgcFRgfb9yfn4gDn6dH9tXToAAAQJHBdb3K+fnB+Lg1/mxfeUECBAgcFRgfb9yfn4gDn6dH9tXToAAAQJHBdb3K+fnB+Lg1/mxfeUECBAgcFRgfb9yfn4gDn6dH9tXToAAAQJHBdb3K+fnB+Lg1/mxfeUECBAgcFRgfb9yfn4gDn6dH9tXToAAAQJHBdb3K+fnB+Lg1/mxfeUECBAgcFRgfb9yfn4gDn6dH9tXToAAAQJHBdb3K+fnB+Lg1/mxfeUECBAgcFRgfb9yfn4gDn6dH9tXToAAAQJHBdb3K+fnB+Lg1/mxfeUECBAgcFRgfb9yfn4gDn6dH9tXToAAAQJHBdb3K+fnB+Lg1/mxfeUECBAgcFRgfb9yfn4gDn6dH9tXToAAAQJHBdb3K+fnB+Lg1/mxfeUECBAgcFRgfb9yfn4gDn6dH9tXToAAAQJHBdb3K+fnB+Lg1/mxfeUECBAgcFRgfb9yfn4gDn6dH9tXToAAAQJHBdb3K+fnB+Lg1/mxfeUECBAgcFRgfb9yfn4gDn6dH9tXToAAAQJHBdb3K+fnB+Lg1/mxfeUECBAgcFRgfb9yfn4gDn6dH9tXToAAAQJHBdb3K+fnB+Lg1/mxfeUECBAgcFRgfb9yfn4gDn6dH9tXToAAAQJHBdb3K+fnB+Lg1/mxfeUECBAgcFRgfb9yfn4gDn6dH9tXToAAAQJHBdb3K+fnB+Lg1/mxfeUECBAgcFRgfb9yfn4gDn6dH9tXToAAAQJHBdb3K+fnB+Lg1/mxfeUECBAgcFRgfb9yfn4gDn6dH9tXToAAAQJHBdb3K+fnB+Lg1/mxfeUECBAgcFRgfb9yfn4gDn6dH9tXToAAAQJHBdb3K+fnB+Lg1/mxfeUECBAgcFRgfb9yfn4gDn6dH9tXToAAAQJHBdb3K+fnB+Lg1/mxfeUECBAgcFRgfb9yfn4gDn6dH9tXToAAAQJHBdb3K+fnB+Lg1/mxfeUECBAgcFRgfb9yfn4gDn6dH9tXToAAAQJHBdb3K+fnB+Lg1/mxfeUECBAgcFRgfb9yfn4gDn6dH9tXToAAAQJHBdb3K+fnB+Lg1/mxfeUECBAgcFRgfb9yfn4gDn6dH9tXToAAAQJHBdb3K+fnB+Lg1/mxfeUECBAgcFRgfb9yfn4gDn6dH9tXToAAAQJHBdb3K+fnB+Lg1/mxfeUECBAgcFRgfb9yfn4gDn6dH9tXToAAAQJHBdb3K+fnB+Lg1/mxfeUECBAgcFRgfb9yfn4gDn6dH9tXToAAAQJHBdb3K+fnB+Lg1/mxfeUECBAgcFRgfb9yfn4gDn6dH9tXToAAAQJHBdb3K+fnB+Lg1/mxfeUECBAgcFRgfb9yfn4gDn6dH9tXToAAAQJHBdb3K+fnB+Lg1/mxfeUECBAgcFRgfb9yfn4gDn6dH9tXToAAAQJHBdb3K+fnB+Lg1/mxfeUECBAgcFRgfb9yfn4gDn6dH9tXToAAAQJHBdb3K+fnB+Lg1/mxfeUECBAgcFRgfb9yfn4gDn6dH9tXToAAAQJHBdb3K+fnB+Lg1/mxfeUECBAgcFRgfb9yfn4gDn6dH9tXToAAAQJHBdb3K+fnB+Lg1/mxfeUECBAgcFRgfb9yfn4gDn6dH9tXToAAAQJHBdb3K+fnB+Lg1/mxfeUECBAgcFRgfb9yfn4gDn6dH9tXToAAAQJHBdb3K+fnB+Lg1/mxfeUECBAgcFRgfb9yfn4gDn6dH9tXToAAAQJHBdb3K+fnB+Lg1/mxfeUECBAgcFRgfb9yfn4gDn6dH9tXToAAAQJHBdb3K+fnB+Lg1/mxfeUECBAgcFRgfb9yfn4gDn6dH9tXToAAAQJHBdb3K+fnB+Lg1/mxfeUECBAgcFRgfb9yfn4gDn6dH9tXToAAAQJHBdb3K+fnB+Lg1/mxfeUECBAgcFRgfb9yfn4gDn6dH9tXToAAAQJHBdb3K+fnB+Lg1/mxfeUECBAgcFRgfb9yfn4gDn6dH9tXToAAAQJHBdb3K+fnB+Lg1/mxfeUECBAgcFRgfb9yfn4gDn6dH9tXToAAAQJHBdb3K+fnB+Lg1/mxfeUECBAgcFRgfb9yfn4gDn6dH9tXToAAAQJHBdb3K+fnB+Lg1/mxfeUECBAgcFRgfb9yfn4gDn6dH9tXToAAAQJHBdb3K+fnB+Lg1/mxfeUECBAgcFRgfb9yfn4gDn6dH9tXToAAAQJHBdb3K+fnB+Lg1/mxfeUECBAgcFRgfb9yfn4gDn6dH9tXToAAAQJHBdb3K+fnB+Lg1/mxfeUECBAgcFRgfb9yfn4gDn6dH9tXToAAAQJHBdb3K+fnB+Lg1/mxfeUECBAgcFRgfb9yfn4gDn6dH9tXToAAAQJHBdb3K+fnB+Lg1/mxfeUECBAgcFRgfb9yfn4gDn6dH9tXToAAAQJHBdb3K+fnB+Lg1/mxfeUECBAgcFRgfb9yfn4gDn6dH9tXToAAAQJHBdb3K+fnB+Lg1/mxfeUECBAgcFRgfb9yfn4gDn6dH9tXToAAAQJHBdb3K+fnB+Lg1/mxfeUECBAgcFRgfb9yfn4gDn6dH9tXToAAAQJHBdb3K+fnB+Lg1/mxfeUECBAgcFRgfb9yfn4gDn6dH9tXToAAAQJHBdb3K+fnB+Lg1/mxfeUECBAgcFRgfb9yfn4gDn6dH9tXToAAAQJHBdb3K+fnB+Lg1/mxfeUECBAgcFRgfb9yfn4gDn6dH9tXToAAAQJHBdb3K+fnB+Lg1/mxfeUECBAgcFRgfb9yfn4gDn6dH9tXToAAAQJHBdb3K+fnB+Lg1/mxfeUECBAgcFRgfb9yfn4gDn6dH9tXToAAAQJHBdb3K+fnB+Lg1/mxfeUECBAgcFRgfb9yfn4gDr7mq//5YcDADtgBO/DeDsTzmf+7vz8QfwJL+97SmpmZ2QE7YAf6DsTz2e93HeL6B6j9q+9LzJChHbADduD7HVjfz/4FEX8CS/P90jBjZgfsgB14fwfi+ez3uy7R+geo/at//5fIDM3QDtiBF3dgfT/7F0T8CV4cmp79l40dsAN2wA7UHYjns9/v13+A2r96v8R2wA7YATuw2AEfAD8Wb7F4Mu2dHbADdmC7Az4AfADk/zOOX+LtLzF//nbADvxmB3wA+ADwAWAH7IAdsAMHd8AHwMGh/+ZLUY1/YdgBO2AH/q0d8AHgA8CXvx2wA3bADhzcAR8AB4fuK/7f+oo3T/O0A3bgNzvgA8AHgC9/O2AH7IAdOLgDPgAODv03X4pq/AvDDtgBO/Bv7YAPAB8AvvztgB2wA3bg4A6c/wCoAOoJECBAgMBFgfp/EcpfnRfR/cwECBAgQGAt4ANgPQH5BAgQIEBgIOADYIAukgABAgQIrAV8AKwnIJ8AAQIECAwEfAAM0EUSIECAAIG1gA+A9QTkEyBAgACBgYAPgAG6SAIECBAgsBbwAbCegHwCBAgQIDAQ8AEwQBdJgAABAgTWAj4A1hOQT4AAAQIEBgI+AAboIgkQIECAwFrAB8B6AvIJECBAgMBAwAfAAF0kAQIECBBYC/gAWE9APgECBAgQGAj4ABigiyRAgAABAmuB+QdAbUD9T/7/kpkhQztgB+yAHfh2BxyfH0vz7dL4+3bGDtgBO/D+DvgA8AFgB+yAHbADduDgDhj6waH7cn//y90MzdAO2IG6Az4AfADYATtgB+yAHTi4A4Z+cOj1q1G9f3nYATtgB97fAR8APgDsgB2wA3bADhzcAUM/OHRf7u9/uZuhGdoBO1B3wAeADwA7YAfsgB2wAwd3wNAPDr1+Nar3Lw87YAfswPs74APAB4AdsAN2wA7YgYM7YOgHh+7L/f0vdzM0QztgB+oO+ADwAWAH7IAdsAN24OAOGPrBodevRvX+5WEH7IAdeH8HfAD4ALADdsAO2AE7cHAHDP3g0H25v//lboZmaAfsQN2BH/8hQGAn8Pov8Ov97yYvmQABAgROC7x+QF/v//Ty+eEJECBAYCfw+gF9vf/d5CUTIECAwGmB1w/o6/2fXj4/PAECBAjsBF4/oK/3v5u8ZAIECBA4LfD6AX29/9PL54cnQIAAgZ3A6wf09f53k5dMgAABAqcFXj+gr/d/evn88AQIECCwE3j9gL7e/27ykgkQIEDgtMDrB/T1/k8vnx+eAAECBHYCrx/Q1/vfTV4yAQIECJwWeP2Avt7/6eXzwxMgQIDATuD1A/p6/7vJSyZAgACB0wKvH9DX+z+9fH54AgQIENgJvH5AX+9/N3nJBAgQIHBa4PUD+nr/p5fPD0+AAAECO4HXD+jr/e8mL5kAAQIETgu8fkBf7//08vnhCRAgQGAn8PoBfb3/3eQlEyBAgMBpgdcP6Ov9n14+PzwBAgQI7AReP6Cv97+bvGQCBAgQOC3w+gF9vf/Ty+eHJ0CAAIGdwOsH9PX+d5OXTIAAAQKnBV4/oK/3f3r5/PAECBAgsBN4/YC+3v9u8pIJECBA4LTA6wf09f5PL58fngABAgR2Aq8f0Nf7301eMgECBAicFnj9gL7e/+nl88MTIECAwE7g9QP6ev+7yUsmQIAAgdMCrx/Q1/s/vXx+eAIECBDYCbx+QF/vfzd5yQQIECBwWuD1A/p6/6eXzw9PgAABAjuB1w/o6/3vJi+ZAAECBE4LvH5AX+//9PL54QkQIEBgJ/D6AX29/93kJRMgQIDAaYHXD+jr/Z9ePj88AQIECOwEXj+gr/e/m7xkAgQIEDgt8PoBfb3/08vnhydAgACBncDrB/T1/neTl0yAAAECpwVeP6Cv9396+fzwBAgQILATeP2Avt7/bvKSCRAgQOC0wOsH9PX+Ty+fH54AAQIEdgKvH9DX+99NXjIBAgQInBZ4/YC+3v/p5fPDEyBAgMBO4PUD+nr/u8lLJkCAAIHTAq8f0Nf7P718fngCBAgQ2Am8fkBf7383eckECBAgcFrg9QP6ev+nl88PT4AAgaVAPSDqf34YvGuw/N2TTYAAgamA4/Xu8TK7PrvpL59wAgQILAUckX5EGL5ruPzdk02AAIGpgOP17vEyuz676S+fcAIECCwFHJF+RBi+a7j83ZNNgACBqYDj9e7xMrs+u+kvn3ACBAgsBRyRfkQYvmu4/N2TTYAAgamA4/Xu8TK7PrvpL59wAgQILAUckX5EGL5ruPzdk02AAIGpgOP17vEyuz676S+fcAIECCwFHJF+RBi+a7j83ZNNgACBqYDj9e7xMrs+u+kvn3ACBAgsBRyRfkQYvmu4/N2TTYAAgamA4/Xu8TK7PrvpL59wAgQILAUckX5EGL5ruPzdk02AAIGpgOP17vEyuz676S+fcAIECBAgQIAAAQIECBAgQIAAAQI2TB1EAAABo0lEQVQECBAgQIAAAQIECBAgQIAAAQIECBAgQIAAAQIECBAgQIAAAQIECBAgQIAAAQIECBAgQIAAAQIECBAgQIAAAQIECBAgQIAAAQIECBAgQIAAAQIECBAgQIAAAQIECBAgQIAAAQIECBAgQIAAAQIECBAgQIAAAQIECBAgQIAAAQIECBAgQIAAAQIECBAgQIAAAQIECBAgQIAAAQIECBAgQIAAAQIECBAgQIAAAQIECBAgQIAAAQIECBAgQIAAAQIECBAgQIAAAQIECBAgQIAAAQIECBAgQIAAAQIECBAgQIAAAQIECBAgQIAAAQIECBAgQIAAAQIECBAgQIAAAQIECBAgQIAAAQIECBAgQIAAAQIECBAgQIAAAQIECBAgQIAAAQIECBAgQIAAAQIECBAgQIAAAQIECBAgQIAAAQIECBAgQIAAAQIECBAgQIAAAQIECBAgQIAAAQIECBAgQIAAAQIECBAgQIAAAQIECBAgQIAAAQIECBAgQIAAAQIECBAgQIAAAQIECBAgQIAAAQIECBAgQIAAAQIECBAgQOB7gf8HdSk6QE7kphQAAAAASUVORK5CYII=;fontStyle=1" parent="1" vertex="1">
                    <mxGeometry x="-119.26999999999998" y="1493" width="52" height="52" as="geometry"/>
                </mxCell>
                <mxCell id="84" value="COMPAS Scene Geometries" style="rounded=0;whiteSpace=wrap;html=1;labelBackgroundColor=none;fontColor=default;align=center;verticalAlign=bottom;labelPosition=center;verticalLabelPosition=middle;fontFamily=Source Sans Pro;fontStyle=3;fontSize=16;spacing=0;spacingLeft=10;spacingRight=10;strokeColor=#999999;" parent="1" vertex="1">
                    <mxGeometry x="-168.35" y="1686" width="150.15" height="115" as="geometry"/>
                </mxCell>
                <mxCell id="92" value="" style="shape=image;verticalLabelPosition=bottom;labelBackgroundColor=default;verticalAlign=top;aspect=fixed;imageAspect=0;image=data:image/png,iVBORw0KGgoAAAANSUhEUgAAAgAAAAIACAYAAAD0eNT6AAAAAXNSR0IArs4c6QAAIABJREFUeAHt3Q2wdW1d1/HfA/Ki+AKKpfmWlROpNZZQgiU5WIZOamMvk4MhGhiBiq+jWSH4mDCmmJKKWqggIjopKA8KGpmG49RgRlZiWIaoOahDaQQpT3PJc55n3/d99tpr73Wtl+tanz1zzzn33mtd1////f/3/n/3Pnufk7gggAACCCCAAAIIIIAAAggggAACCCCAAAIIIIAAAggggAACCCCAAAIIIIAAAggggAACCCCAAAIIIIAAAggggAACCCCAAAIIIIAAAggggAACCCCAAAIIIIAAAggggAACCCCAAAIIIIAAAggggAACCCCAAAIIIIAAAggggAACCCCAAAIIIIAAAggggAACCCCAAAIIIIAAAggggAACCCCAAAIIIIAAAggggAACCCCAAAIIIIAAAggggAACCCCAAAIIIIAAAggggAACCCCAAAIIIIAAAggggAACCCCAAAIIIIAAAggggAACCCCAAAIIIIAAAggggAACCCCAAAI7IXDfJI9K8ulJnuAfBnpAD+iBW3rgMUkeluS2ncwFae6AwCcneUOSO/3DQA/oAT1wsgdek+QRO5gNUuycwJOSvM0d/uQdnhwRRD2gBw574LdJQOfTsfP0DH8PaIcPaL7XD3rgvB4orwTcu/M5Ib0OCRj+593RPTDipQf0wHU98PAO54OUOiZg+Hsgu+6BzHX6Qg+c3wOP7XhWSK0zAuUd/n7mf/6d3AMjZnpAD1zXA+Ux1QWBzRMw/D2AXfcA5jp9oQcu7wECsPnRJ0DD//I7uAdH7PSAHjjWAwTAfN00AcPfg9exBy/X6w09MK0HCMCmx9++g6vxhr/yedfX+YeBHtADHfXA6yv9/hMCsO8Zu9nsaz3zf9lmMxQYAgggcD6B8qvPX0IAzgfnjDYI1Br+5eVBAtBGzUWJAAKnCdQc/uXx0SsAp5k7YkECNYc/AViwcLZCAIFZCdQe/gRg1nJZ/FwCtYc/ATi3Ao5HAIEtEphj+BOALVZ6pzE9eaZf8uNHADttKGkj0AmB+yW5o9LP/MvQP/znRwCdNEnLacw1/Eujv6hlMGJHAIFdE5hz+HsFYNettY3kLx3+b7rJZA+t9vD7L9xGmqJAAAEEziIw9/AnAGeVw8G1CVw6/H85yUOSvOqEBPxmkvesHbT1EEAAgZkJTBn+5ccF5XefHD4ROva9HwHMXEjLX09g6vAvq35gkp870ujlFYK/cP3WrkUAAQQ2S2Dq8C/n/6cjj4s3iwAB2Gwb9BtYjeF/RedBSb4xyRvvavg3J3lxkg+5OsBXBBBAoBECNYZ/SZUANFLwvYVZc/jfzO7dktzr5iv9HwEEEGiAQK3hX1IlAA0UfG8hXvo5/19N8sF7gyVfBBDYDYEpn/P/oST3v4kUAbgJiP+uS8DwX5e/3RFAYJsEag//kiUB2GatdxmV4b/LsksaAQROEJhj+JctCcAJ8G5ehoDhvwxnuyCAQFsE5hr+hQIBaKsXuozW8O+yrJJCAIGJBOYc/iU0AjCxQE6fRsDwn8bP2Qgg0CeBuYd/oUYA+uydJrIy/JsokyARQGBhAksM/5ISAVi4sLZ7OwHDXycggAACtxJYaviXnQnArfxdMzMBw39mwJZHAIEmCSw5/AsgAtBkm7QbtOHfbu1EjgAC8xFYeviXTAjAfPW08k0EDP+bgPgvAgggkGSN4V/AEwDttwgBw38RzDZBAIHGCKw1/AsmAtBYs7QYruHfYtXEjAACcxNYc/iX3AjA3BXe+fqG/84bQPoIIHAtgbWHfwmKAFxbGlfWIGD416BoDQQQ6I3AFoZ/YUoAeuusjeRj+G+kEMJAAIFNEdjK8C9QCMCmWqOPYAz/PuooCwQQqEtgS8O/ZEYA6tZ396sZ/rtvAQAQQOAaAlsb/iVEAnBNoVx1GQHD/zJuzkIAgb4JbHH4F+IEoO++Wyy7Fob/A5L85SRPTPI3kjx4MTo2QgCBvRLY6vAv9SAAe+3Kinm3MPwfm+SNSe48+PfmJE9Lcq+KLCyFAAIIXBHY8vAvMRKAq0r5ehGBFob/ZxwM/UMBuPr+6y/K3EkIIIDAcQJbH/4lcgJwvH5uOUGgheH/oCRvOiEAb0vy0BO5uhkBBBAYS6CF4V9yIQBjK+q4Gwi0MPxLwI85MfyvXgX46huy8x8EEEDgMgKtDP+SHQG4rMa7PquV4V+K9NSRAvDiXVdU8gggUINAS8O/5EsAalR9R2u0NPxLWW4fKQAv21ENpYoAAvUJtDb8CwECUL8Pul2xteFfCkEAum1HiSGwGQItDv8CjwBspoW2HUiLw78QJQDb7ivRIdA6gVaHf+FOAFrvvgXib3X4FzQEYIEGsQUCOyXQ8vAvJSMAO23csWm3PPxLjgRgbKUdhwAC5xBoffiXXAnAORXf2bGtD/9SLgKws6aVLgILEOhh+BdMBGCBZmlxix6Gf+FOAFrsPjEjsF0CvQz/QpgAbLfPVousl+FfABKA1drIxgh0R6Cn4V+KQwC6a9FpCfU0/AsJAjCtH5yNAAJvJ9Db8C9ZEQDdfTeB3oZ/SYwA3F1e3yCAwIUEehz+BQUBuLAhejutx+FfavRFI38T4At7K6h8EECgCoFeh3+BQwCqtEjbi/Q6/EtVHjlSAJ7SdglFjwACMxDoefgXXARghqZpacmeh3+pw21JfuqEBPxakge2VDSxIoDA7AR6H/4FIAGYvY22u0Hvw/+K/Acm+cUjEvC/kvz5qwN9RQABBJLsYfiXQhOAnbb7Xob/VXkfnORZSV5/lwj8epLnJfmgqwN8RQABBHY0/EuxCcAOW35vw//mEt/r5iv8HwEEENjZ8C8FJwA7a/u9D/+dlVu6CCAwksBeXvY/xEEADml0/r3h33mBpYcAAhcR2OPwL6AIwEXt0t5Jhn97NRMxAgjMT2Cvw7+QJQDz99fqOxj+q5dAAAggsEECex7+pRwEYINNWTMkw78mTWshgEAvBPY+/EsdCUAv3XxNHob/NVBchQACuydg+L+9BQhAp3cFw7/TwkoLAQQmETD878FHAO5h0c13hn83pZQIAghUJGD43wiTANzIo/n/TRn+H9J89hJAAAEEridg+N/KhQDcyqTZawz/ZksncAQQmJGA4X89XAJwPZfmrjX8myuZgBFAYAEChv9xyATgOJtmbjH8mymVQBFAYEECU4b/y5Lcf8FY19iKAKxBveKehn9FmJZCAIFuCBj+p0tJAE4z2uwRhv9mSyMwBBBYkYDhPw4+ARjHaXNHGf6bK4mAEEBgAwQM//FFIADjWW3mSMN/M6UQCAIIbIiA4X9eMQjAebxWP9rwX70EAkAAgQ0SMPzPLwoBOJ/ZamcY/quhtzECCGyYgOF/WXEIwGXcFj/L8F8cuQ0RQKABAob/5UUiAJezW+xMw78O6gcm+etJvjDJpyV5nzrLWgUBBFYiYPhPA08ApvGb/WzDvw7iJyZ5U5I7D/69NclXJXmHOltYBQEEFiRg+E+HTQCmM5xtBcO/DtonHQz9QwG4+v5b6mxjFQQQWIiA4V8HNAGow7H6KoZ/HaTvkeR/nxCAIgIfUWc7qyCAwMwEDP96gAlAPZbVVjL8q6HM3xox/IsAPKvellZCAIGZCBj+dcESgLo8J69m+E9GeMMCTx0pAC+54Sz/QQCBrREw/OtXhADUZ3rxiob/xeiOnnj7SAEof/nLBQEEtknA8J+nLgRgHq5nr2r4n41s1AkEYBQmByGwWQKG/3ylIQDzsR29suE/GtXZBxKAs5E5AYHNEDD85y0FAZiX78nVDf+TiCYdQAAm4XMyAqsRMPznR08A5md8dAfD/yiaajcQgGooLYTAYgQM/2VQE4BlON+yi+F/C5JZriAAs2C1KAKzETD8Z0N7y8IE4BYk819h+M/P+GoHAnBFwlcEtk/A8F+2RgRgWd4x/JcFTgCW5W03BC4lYPhfSu7y8wjA5ezOPtPwPxvZ5BMIwGSEFkBgdgKG/+yIr92AAFyLpf6Vhn99pmNWJABjKDkGgfUIGP7rsScAC7A3/BeAfGSLLxz5mwBfcOR8VyOAwHwEDP/52I5ZmQCMoTThGMN/ArwKp37kSAF4coW9LIEAAuMJGP7jWc11JAGYi2ziDX8zsh279G1JfuKEBPxKkncZu6DjEEBgMgHDfzLCKgsQgCoYb13EM/9bmax1zfsl+fkjEvAbSR6xVmD2RWCHBAz/7RSdAMxQC8N/BqgTl3xgkvKGwNcmeUuS1yd5TpL3n7iu0xFAYDwBw388qyWOJACVKRv+lYFaDgEEuiBg+G+vjASgYk0M/4owLYUAAt0QMPy3WUoCUKkuhn8lkJZBAIGuCBj+2y0nAahQG8O/AkRLIIBAdwQM/22XlABMrI/hPxGg0xFAoEsChv/2y0oAJtTI8J8Az6kIINAtAcO/jdISgAvrZPhfCM5pCCDQNQHDv53yEoALamX4XwDNKQgg0D0Bw7+tEhOAM+tl+J8JzOEIILALAoZ/e2UmAGfUzPA/A5ZDEUBgNwQM/zZLTQBG1s3wHwnKYQggsCsChn+75SYAI2pn+I+A5BAEENgdAcO/7ZITgBP1M/xPAHIzAgjskoDh337ZCcBADQ3/AThuQgCB3RIw/PsoPQE4UkfD/wgYVyOAwK4JGP79lJ8AXFNLw/8aKK5CAIHdEzD8+2oBAnBTPQ3/m4D4LwIIIJDE8O+vDQjAQU0N/wMYvkUAAQTuImD499kKBOCuuhr+fTa4rBBAYBoBw38avy2fTQCSGP5bblGxIYDAWgQM/7XIL7Pv7gXgyUneluTOC/59X5Jn+IeBHtADnfbAj13wuFgeS1+a5H7LzDC7TCCwawG49Jn/JbLgnMskCzfc9EBbPfCyJPefMJScuhyB3QrAJ0945u8Bqa0HJPVSLz2wTA945r/c8K6x0y4FoPxc6w0XvrTlgWSZBxKccdYDbfWA4V9jJC+7xi4F4KMN/4ve8+ABua0HZPVSr6V6wPBfdnDX2m2XAvA4AkAA9IAe0ANVesDwrzWOl19nlwJQ3vy3lBnbB2s9oAd67QFv+Ft+aNfckQCQATKkB/SAHji7B17po341Z/EqaxEAd/yz7/i9PpuRl2fqemB8D9y+ysiyaU0CBIAAEAA9oAf0wNk9QABqjuJ11iIAA3f830ryCv+aZvALA/U9fLb3RnVuus7up/Ueq8p94fC+cex7ArDO0K65KwEYaPYCx6VtAuVB6tgD2OH15c1MLgggkJT7wuF949j3BKD9biEAA81OANpvcALQfg1lsCwBArAs7zV3IwAEYM3+m31vAjA7Yht0RoAAdFbQgXQIAAEYaI/2byIA7ddQBssSIADL8l5zNwJAANbsv9n3JgCzI7ZBZwQIQGcFHUiHABCAgfZo/6bPH6jv4ZubvrP9VGWAQBUCBKAKxiYWIQADA6LAcWmbwEcM1PdQAJ7YdpqiR6AaAQJQDeXmFyIAAwOCAGy+f0cF+C8Halwk4PVJHjBqJQch0D8BAtB/ja8yJAADw4EAXLVJ21/fO8nPHqnzryV5aNvpiR6BqgQIQFWcm16MABwZDOWZIQHYdO+eFVx5hv+lSV6d5DeS/FySZyUpcuCCAAL3ECAA97Do/TsCQAB673H5IYDAGQQIwBmwGj+UABCAxltY+AggUJMAAahJc9trEQACsO0OFR0CCCxKgAAsinvVzQgAAVi1AW2OAALbIkAAtlWPOaMhAARgzv6yNgIINEaAADRWsAnhEgACMKF9nIoAAr0RIAC9VfR4PgSAABzvDrcggMDuCBCA/ZScABCA/XS7TBFA4CQBAnASUTcHEAAC0E0zSwQBBKYTIADTGbayAgEgAK30qjgRQGABAgRgAcgb2YIAEICNtKIwEEBgCwQIwBaqsEwMBIAALNNpdkEAgSYIEIAmylQlSAJAAKo0kkUQQKAPAgSgjzqOyYIAEIAxfeIYBBDYCQECsJNC3/UXb8tfvj317wk9ISnJnErYnwPuqeJyQQCBsQQIwFhS7R/nFYABGShwXBBAAIE9ESAA+6k2ASAA++l2mSKAwEkCBOAkom4OIAAEoJtmlggCCEwnQACmM2xlBQJAAFrpVXEigMACBAjAApA3sgUBIAAbaUVhIIDAFggQgC1UYZkYCAABWKbTNrDL+yZ5YpJnJPmCJB+6gZiEgMDWCBCArVVkvngIAAGYr7s2svJtSf5+krfcVOu3JXluknfcSJzCQGALBAjAFqqwTAwE4KahcPj7AQocl/YJfOlAjUu9v6f9FGWAQDUCBKAays0vRAAGhgMB2Hz/ngzwvZO8eaDGV8L30SdXcgAC+yBAAPZR55IlARgYDgSg/TvCZwzU92r4l6/Pbj9VGSBQhQABqIKxiUUIwMCAIABN9PBgkE8bqO+hAPzA4CpuRGA/BAjAfmpNAAYGBAFo/45w+0B9DwWgPOi5IIBAQgD20wUEYGBAEID27wgEoP0aymBZAgRgWd5r7kYACMCa/Tf73gRgdsQ26IwAAeisoAPpEAACMNAe7d9EANqvoQyWJUAAluW95m4EgACs2X+z700AZkdsg84IEIDOCjqQDgEgAAPt0f5NBKD9GspgWQIEYFnea+5GAAjAmv03+94EYHbENuiMAAHorKAD6RAAAjDQHu3fRADar6EMliVAAJblveZuBIAArNl/s+9NAGZHbIPOCBCAzgo6kA4BIAAD7dH+TQSg/RrKYFkCBGBZ3mvuRgAIwJr9N/venzdQ38PfBPj82SOxAQJtECAAbdSpRpQEYGBAFDgubRN46EB9DwXg8W2nKXoEqhEgANVQbn4hAjAwIAjA5vt3VIA/NFDjIgH/Lck7jlrJQQj0T4AA9F/jqwwJwMBwIABXbdL21/dM8uojdX5Dkj/RdnqiR6AqAQJQFeemFyMARwZDeWZIADbdu2cFd/8kT0nyqiS/lOSnk3xFkvc4axUHI9A/AQLQf42vMiQABOCqF3xFAAEE/DngHfUAASAAO2p3qSKAwCkCXgE4Raif2wkAAeinm2WCAAKTCRCAyQibWYAAEIBmmlWgCCAwPwECMD/jrexAAAjAVnpRHAggsAECBGADRVgoBAJAABZqNdsggEALBAhAC1WqEyMBIAB1OskqCCDQBQEC0EUZRyVBAAjAqEZxEAII7IMAAdhHnUuWBIAA7KfbZYoAAicJEICTiLo5gAAQgG6aWSIIIDCdAAGYzrCVFQgAAWilV8WJAAILECAAC0DeyBYEgABspBWFgQACWyBAALZQhWViIAAEYJlOswsCCDRBgAA0UaYqQRIAAlClkSyCAAJ9ECAAfdRxTBYEgACM6RPHIIDATggQgJ0U2scAkzsJwH66XaYIIHCSAAE4iaibA7wCQAC6aWaJIIDAdAIEYDrDVlYgAASglV4VJwIILECAACwAeSNbEAACsJFWFAYCCGyBAAHYQhWWiYEAEIBlOs0uCCDQBAEC0ESZqgRJAAhAlUZqYZE/kuSLkjw7yVOT/OkWghYjAgsTIAALA19xOwJAAFZsv2W2vleSr0zyO9fU+kVJ3nmZMOyCQBMECEATZaoSJAG4ZihcfTSwwHFpn8DTB2pcav2S9lOUAQLVCBCAaig3vxABGBgOBGDz/XsywPdJ8paBGl/J3l88uZIDENgHAQKwjzqXLAnAwHAgAO3fER4/UN+r4V++fkP7qcoAgSoECEAVjE0sQgAGBgQBaKKHB4N82kB9DwXgBwdXcSMC+yFAAPZTawIwMCAIQPt3hNsH6nsoAOVBzwUBBBICsJ8uIAADA4IAtH9HIADt11AGyxIgAMvyXnM3AkAA1uy/2fcmALMjtkFnBAhAZwUdSIcAEICB9mj/JgLQfg1lsCwBArAs7zV3IwAEYM3+m31vAjA7Yht0RoAAdFbQgXQIAAEYaI/2byIA7ddQBssSIADL8l5zNwJAANbsv9n3JgCzI7ZBZwQIQGcFHUiHABCAgfZo/yYC0H4NZbAsAQKwLO81dyMABGDN/pt9bwIwO2IbdEaAAHRW0IF0CAABGGiP9m8aKwB3tJ+qDBCoQoAAVMHYxCIEgAA00aiXBvm5A/U9/E2A33HpBs5DoDMCBKCzgg6kQwAGBkSB49I2gQ8bqO+hADyu7TRFj0A1AgSgGsrNL0QABgYEAdh8/44K8MUDNS4S8Nok9xu1koMQ6J8AAei/xlcZEoCB4UAArtqk7a8PSvKTR+r835M8pO30RI9AVQIEoCrOTS9GAI4MhvLMkABsunfPCu4+SR6f5BV3PeP/iSR/L8m7nrWKgxHonwAB6L/GVxkSAAJw1Qu+IoAAAv4c8I56gAAQgB21u1QRQOAUAa8AnCLUz+0EgAD0080yQQCByQQIwGSEzSxAAAhAM80qUAQQmJ8AAZif8VZ2IAAEYCu9KA4EENgAAQKwgSIsFAIBIAALtZptEECgBQIEoIUq1YmRABCAOp1kFQQQ6IIAAeiijKOSIAAEYFSjOAgBBPZBgADso84lSwJAAPbT7TJFAIGTBAjASUTdHEAACEA3zSwRBBCYToAATGfYygoEgAC00qviRACBBQgQgAUgb2QLAkAANtKKwkAAgS0QIABbqMIyMRAAArBMp9kFAQSaIEAAmihTlSAJAAGo0kgWQQCBPggQgD7qOCYLAkAAxvSJYxBAYCcECMBOCu1jgMmdBGA/3S5TBBA4SYAAnETUzQFeASAA3TSzRBBAYDoBAjCdYSsrEAAC0EqvihMBBBYgQAAWgLyRLQgAAdhIKwoDAQS2QIAAbKEKy8RAAAjAMp1mFwQQaIIAAWiiTFWCJAAEoEojtbDIhyZ5apJvTfLMJI9sIWgxIrAwAQKwMPAVtyMABGDF9ltm63sn+bokv3tNrX8wybstE4ZdEGiCAAFookxVgiQA1wyFq48GFjgu7RMoz/avanrd1x9Oclv7acoAgSoECEAVjE0sQgAGhgMBaKKHB4N8/yRvHajxlRB83OAqbkRgPwQIwH5qTQAGhgMBaP+O8JkD9b0a/uXrN7WfqgwQqEKAAFTB2MQiBGBgQBCAJnp4MMinD9T3UADKewFcEEAgIQD76QICMDAgCED7d4TbB+p7KADlQc8FAQQIwJ56gAAMDAgC0P5dgQC0X0MZLEvAKwDL8l5zNwJAANbsv9n3JgCzI7ZBZwQIQGcFHUiHABCAgfZo/yYC0H4NZbAsAQKwLO81dyMABGDN/pt9bwIwO2IbdEaAAHRW0IF0CAABGGiP9m8iAO3XUAbLEiAAy/JeczcCQADW7L/Z9yYAsyO2QWcECEBnBR1IhwAQgIH2aP8mAtB+DWWwLAECsCzvNXcjAARgzf6bfW8CMDtiG3RGgAB0VtCBdAgAARhoj/Zv+vKB+h7+IqA72k9VBghUIUAAqmBsYhECMDAgChyXtgl8zkB9DwXg29pOU/QIVCNAAKqh3PxCBGBgQBCAzffvyQD/+EB9DwXgU0+u5AAE9kGAAOyjziVLAjAwIAhAH3eEFw3UuEjAzya5Tx+pygKByQQIwGSEzSxAAAaGAwFopo8HA33XJK88UufXJvnDg2e7EYF9ESAA+6k3ATgyGMozQwLQzx3h3kkek+T7k7w6ycuTPCXJO/WTokwQqEKAAFTB2MQiBIAANNGogkQAgWUIEIBlOG9hFwJAALbQh2JAAIGNECAAGynEAmEQAAKwQJvZAgEEWiFAAFqp1PQ4CQABmN5FVkAAgW4IEIBuSnkyEQJAAE42iQMQQGA/BAjAfmpNAAjAfrpdpgggcJIAATiJqJsDCAAB6KaZJYIAAtMJEIDpDFtZgQAQgFZ6VZwIILAAAQKwAOSNbEEACMBGWlEYCCCwBQIEYAtVWCYGAkAAluk0uyCAQBMECEATZaoSJAEgAFUaySIIINAHAQLQRx3HZEEACMCYPnEMAgjshAAB2Emh/Tng5PBvwt/8fbEjFwQQQGBPBAjAfqrtFQCvAOyn22WKAAInCRCAk4i6OYAAEIBumlkiCCAwnQABmM6wlRUIAAFopVfFiQACCxAgAAtA3sgWBIAAbKQVhYEAAlsgQAC2UIVlYiAABGCZTrMLAgg0QYAANFGmKkESAAJQpZEsggACfRAgAH3UcUwWBIAAjOkTxyCAwE4IEICdFNrvAfB7APbT6snDkjwzyQuTfF2Sj0ty254AyBWBEQQIwAhInRziFQCvAHTSysfTuE+SbzlS5x9N8u7HT3ULArsjQAD2U3ICcGQwlN8KWOC4tE/gawdqXOr8Sq8EtF9kGVQjQACqodz8QgRgYDgQgM3378kAPzDJ7wzU+OrXP3/CyZUcgMA+CBCAfdS5ZEkABoYDAWj/jvDEgfpeDf/y9ZvbT1UGCFQhQACqYGxiEQIwMCAIQBM9PBjk0wfqeygALx1cxY0I7IcAAdhPrQnAwIAgAO3fEW4fqO+hAJQHPRcEEEgIwH66gAAMDAgC0P4dgQC0X0MZLEuAACzLe83dCAABWLP/Zt+bAMyO2AadESAAnRV0IB0CQAAG2qP9mwhA+zWUwbIECMCyvNfcjQAQgDX7b/a9CcDsiG3QGQEC0FlBB9IhAARgoD3av4kAtF9DGSxLgAAsy3vN3QgAAViz/2bfmwDMjtgGnREgAJ0VdCAdAkAABtqj/ZsIQPs1lMGyBAjAsrzX3I0AEIA1+2/2vQnA7Iht0BkBAtBZQQfSIQAEYKA92r/pywfqe/iLgO5oP1UZIFCFAAGogrGJRQjAwIAocFzaJvDZA/U9FIDntp2m6BGoRoAAVEO5+YUIwMCAIACb79+TAX5wkrcN1PhKAj7l5EoOQGAfBAjAPupcsiQAA8OBAPRxR3jeQI2LAPx0knfoI1VZIDCZAAGYjLCZBQjAwHAgAM308WCgD8jxP3DymiTvP3i2GxHYFwECsJ96EwACsItuvy3JX0nyXUleleT7kzwhyX13kb0kERhPgACMZ9X6kQSAALTew+JHAIGKBAhARZgbX4oAEICNt6jwEED02cnXAAAUrklEQVRgSQIEYEna6+5FAAjAuh1odwQQ2BQBArCpcswaDAEgALM2mMURQKAtAgSgrXpNiZYAEIAp/eNcBBDojAAB6KygA+kQAAIw0B5uQgCBvREgAPupOAEgAPvpdpkigMBJAgTgJKJuDiAABKCbZpYIAghMJ0AApjNsZQUCQABa6VVxIoDAAgQIwAKQN7IFASAAG2lFYSCAwBYIEIAtVGGZGAgAAVim0+yCAAJNECAATZSpSpAEgABUaSSLIIBAHwQIQB91HJMFASAAY/rEMQggsBMCBGAnhU5CAAjAfrpdpgggcJIAATiJqJsDCAAB6KaZJYIAAtMJEIDpDFtZgQAQgFZ6VZwIILAAAQKwAOSNbEEACMBGWlEYCCCwBQIEYAtVWCYGAkAAluk0uyCAQBMECEATZaoSJAEgAFUaySIIINAHAQLQRx3HZEEACMCYPnEMAgjshAAB2EmhfQwwuZMA7KbbPzLJ1yb5F0m+OcknJrltgezvk+RTk3xbkh9O8ooR/8qD8LcsGON9kzwuyXecEeMdSZ6T5OMX4viOSf52kuclefkIhoXzS5N8Y5KPXaDOZYsHJPk7SZ4/Mr6rGP9pkkctFOO7JHlykhccifGNA4+Jh4+Xt88Y77sl+Zwk33UkxuvuQz+Q5J8kefiMcR0u/e5JPj/JC8+M8WuSPOxwoRm/f68kX5Lke4/E+Fsja/2EGWNcfOmSzGEjH/u+vDzi0j6B+yV57pGa/+sk5Y481+UPJnnNkb2P9d3N1/+rmWP8oCT/ZWKMRWzKg/Zclw9J8gsTY3xJkneeK8AkfzLJ/5gY4/ckKaIz1+XPJPnliTFe9edcAvDnkvzaxBiLPL/DXBCTfEySX58Q49uSPDvJvWaMsTzBedOEGK/qXL4SgBkLZen5CJThX54FHjbzzd8XCZjjlYD7J/nPJ/a+OZZj///RmWIsA/F1lWL8wZnK+KAkr68U44tmivH3JfnVSjEWWZ3j8r4Th9bNvTmHAPyhikPrq+aAmOSPJRn7zPlmZjf//2kzxfinkrylUj+WmAnATIWy7HwExgz/qzvkJ8wQxt+teAcscT56hhi/oHKMj5whxn9YOcY5Xn59ZsUYy7PD8opH7cvXV4yx9OMcAvDPKsb41iTvUxviXT86uXrcmPr1zUkePEOMRcanxnZ4PgGYoUiWnI/AOcO/NHr5GWztS3nJ+fBONPX7r6sdYJIfqRzjM2aI8VWVYyxCUfvyM5VjLD9brn35+coxziEAb6gc42NrQ0zym5Vj/GuVY7x3kiIWUx9vDs8nAJWLZLn5CJQ3tJ07fMubjWpfag+u8qat2pd/X/mB4ltrB5jktZVjnEOkag+ur5yBY+3BNYcA/N/Kta4tUuV9BeUVmsPhOPX78kphzUt5L87UmG4+v7xBuJtLsZmbE7zu/94E2F7JyzP/8u706+o5dN0/niHV8u7goT3PvW2OoXCuKJ2K+R/MwLG84/vUvufcXnsolJRry175JEHtS23Zm0MAasveX60NMckvVe7Hj6scY3k/029UjnGOH+1VTnv8cgRgPKuWjrx0+JfhMcfPhT+54p2wPOsob+ypfSkfTzxneA4d+7tJPrh2gEk+s2KM5efC5Y1mtS+fWzHG8vLtH6gdYJIvrRhj6YM5BOArKsZYXvF41xk4PqtijOXTDu80Q4zfVDHG8gbc8lHmbi4EoJtS3p3IJS/7Xw2z8jnxOS7FxMf+UpWrWI59/YY5AkxSfl74ykoPFnO8ilLSLg8+P1kpxqfPxLF84uPVlWL84pliLJ/4+NlKMc4lAA9MUuu9Cp8xE8fypr1frMTxU2aKsXwqpcYnZ8oTj0+aKcbVliUAq6GfbePy8/Fjw3Po+vIRwfLKwVyX8othyi+uufTnhv8vSfk405yfaS7PksrH44Y4Dd1WPm5Ung0WmZjrUj4K+OIJMZafLZcfT8zxcc+rnN9zovD9nyRfNHOM752kfKR0qJ5jb5vjFYDC8v2S/PiEGMtn38tj/JyX8irST02Isbw6MccbFA9zLjH+mwkxlsesJx0u2Mv3BKCXSr49j/JLOcY+aB0eN/fwP6RcPjtcfvvaP0pS3il/6l95cC0vfX/A4SIzf/+hST7rjBi/PMnjk5TPly91+bC7fkNceT/EKYbl9vKMvzwTLINvqcuHJ3nKyPiuYixvsvr9SwWYpPxCoM87EuPYX7g0lwBcYXjEXb9pb0ydyzFfluQxM//SrKvYytcikx+VpHyU9pwY/2aS8krHEpeHXPh7Fbod/gU6AVii9Zbbo7zz/HCwj/l+yeG/HAk7ITCdwNgfW80tANMz2fcKfzTJJZ9OKcO/PBHo9kIA+irtuZ9lN/z7qr9s6hIgAHV5rrGa4T9AnQAMwGnwpu8+4xWA8hHBOX/m3yA+ISNwAwECcAOO5v5j+J8oGQE4Aaixmz99pAAY/o0VVrirECAAq2CvsqnhPwIjARgBqaFDykcAT/3FPcO/oYIKdVUCBGBV/BdvbviPREcARoJq6LDyZ3f/45FXAr7Ty/4NVVKoaxMgAGtX4Pz9Df8zmBGAM2A1dGh5JaB85Kt8pr38+tjnJHlUQ/ELFYEtECAAW6jC+BgM//Gsfu9IAnAmMIcjgMBuCBCAdkpt+F9QKwJwATSnIIDALggQgDbKbPhfWCcCcCE4pyGAQPcECMD2S2z4T6gRAZgAz6kIINA1AQKw7fIa/hPrQwAmAnQ6Agh0S4AAbLe0hn+F2hCAChAtgQACXRIgANssq+FfqS4EoBJIyyCAQHcECMD2Smr4V6wJAagI01IIINAVAQKwrXIa/pXrQQAqA7UcAgh0Q4AAbKeUhv8MtSAAM0C1JAIIdEGAAGyjjIb/THUgADOBtSwCCDRPgACsX0LDf8YaEIAZ4Y5c+mOSfPNdv7P/hUkel6T8Ln8XBBBYlwABWJe/4T8zfwIwM+CB5e+X5AVH/mrff0jyAQPnugkBBOYnQADmZ3xsB8P/GJmK1xOAijDPWKoM/zuODP8777r+NV4JOIOoQxGoT4AA1Gc6ZkXDfwylCscQgAoQz1xizPC/koBPP3NthyOAQD0CBKAey7ErGf5jSVU4jgBUgHjGEucM/yIB333G2g5FAIG6BAhAXZ6nVjP8TxGqfDsBqAx0YLlzh38RgFcMrOcmBBCYlwABmJfv4eqG/yGNhb4nAMuAvmT4FwEonw5wQQCBdQgQgGW4G/7LcL5lFwJwC5LqV1w6/IsAPKp6NBZEAIGxBAjAWFKXH2f4X85u8pkEYDLCwQWmDP/vHFzZjQggMDcBAjAvYcN/Xr4nVycAJxFNOuD5Jz7qV57lX/evfESwyIMLAgisR4AAzMfe8J+P7eiVCcBoVGcf+Mgjw/26gX94neF/NmonIDALAQIwC9YY/vNwPXtVAnA2stEnPPsCATD8R+N1IAKzEyAA9REb/vWZXrwiAbgY3ckTv+9MAXipl/1PMnUAAksSIAB1aRv+dXlOXo0ATEZ4dIHyEb7Dl/aHvjf8j2J0AwKrESAA9dAb/vVYVluJAFRDectCnzRSAAz/W9C5AoFNECAAdcpg+NfhWH0VAlAd6d0L3ivJj52QAMP/bly+QWBzBAjA9JIY/tMZzrYCAZgN7e8t/OABCfh2P/OfF77VEZhIgABMA2j4T+M3+9kEYHbEuS3JJyZ5TpLvSfI1SR4x/7Z2QACBiQQIwOUADf/L2S12JgFYDLWNEECgMQIE4LKCGf6XcVv8LAKwOHIbIoBAIwQIwPmFMvzPZ7baGQRgNfQ2RgCBjRMgAOcVyPA/j9fqRxOA1UsgAAQQ2CgBAjC+MIb/eFabOZIAbKYUAkEAgY0RIADjCmL4j+O0uaMIwOZKIiAEENgIAQJwuhCG/2lGmz2CAGy2NAJDAIGVCRCA4QIY/sN8Nn8rAdh8iQSIAAIrESAAx8Eb/sfZNHMLAWimVAJFAIGFCRCA64Eb/tdzae5aAtBcyQSMAAILESAAt4I2/G9l0uw1BKDZ0gkcAQRmJkAAbgRs+N/Io/n/EYAbS/joJM9L8hNJfiDJZyV5pxsP8T8EENgJAQJwT6EN/3tYdPMdAXh7Ke+X5IVH/nTvf03ykG4qLhEEEBhLgAC8nZThP7ZjGjuOACRl+L/0yPC/867rX5fkAY3VVrgIIDCNAAFIDP9pPbTps/cuAGOG/5UEfPamKyk4BBCoTWDvAmD41+6oja23ZwE4Z/gXCSjvCXBBAIH9ENizABj+O+jzvQrAucO/CMCP76AfpIgAAvcQ2KsAGP739EDX3+1RAMrwv+PEz/yvXvY//PrtXXeC5BBA4GYCexQAw//mLuj4/3sTgEuHfxGBj+24D6SGAAK3EtibABj+t/ZA19fsSQCmDP8XdN0FkkMAgesI7EkADP/rOqDz6/YkAN9xwcv+5Zl/+YhgkQcXBBDYF4G9CIDhv6++vjvbvQjAIwz/u2vuGwQQGEdgDwJg+I/rhS6P2osAfPUFAuCZf5ctLykERhPoXQAM/9Gt0OeBexGA7z5TAAz/PvtdVgicQ6BnATD8z+mETo/diwB8/RkCUD4i6Gf+nTa8tBA4g0CvAmD4n9EEPR+6FwH4SyMFwPDvudvlhsB5BHoUAMP/vB7o+ui9CEAp4g+fkADDv+tWlxwCZxPoTQAM/7NboO8T9iQAD0zy8iMSUH7Ln5f9++512SFwLoGeBMDwP7f6Ozh+TwJQynlbkkcnKe8JeFGSr0ry8B3UWYoIIHA+gV4EwPA/v/a7OGNvArCLokoSAQSqEOhBAAz/Kq3Q5yIEoM+6ygoBBKYTaF0ADP/pPdD1CgSg6/JKDgEEJhBoWQAM/wmF38upBGAvlZYnAgicS6BVATD8z630To8nADstvLQRQOAkgRYFwPA/WVYHXBEgAFckfEUAAQRuJNCaABj+N9bP/04QIAAnALkZAQR2S6AlATD8d9umlydOAC5n50wEEOibQCsCYPj33YezZUcAZkNrYQQQaJxACwJg+DfeZGuGTwDWpG9vBBDYMoGtC4Dhv+XuaSA2AtBAkYSIAAKrENiyABj+q7REX5tuWQA+PskLk/y7JD+S5EuSvEdf+GWDAAIbJrBVATD8N9w0LYW2RQEof5XvBUf+at8vJXloS4DFigACzRLYogAY/s220/YC35oAlOF/x5Hhf+dd1xcJePftoRQRAgh0RmBrAmD4d9Zga6ezJQEYM/yvJOCL1wZnfwQQ6J7AlgTA8O++3ZZPcCsCcN8kLznxzP9q+JevL18elR0RQGBnBLYiAIb/zhpvqXS3IADnPPO/koB/uxQg+yCAwG4JbEEADP/dtt/8ia8tAJcM/yIB5U2CLggggMCcBNYWAMN/zupaO2sKwKXDvwjAo9UOAQQQmJnAmgJg+M9cXMtnNQGYMvyfr3AIIIDAAgTWEgDDf4Hi2mI9AXjuGW/4u/q5f/laPiJY5MEFAQQQmJvAGgJg+M9dVevfTWCNHwE8zPC/m79vEEBguwSWFgDDf7u90GVkawjAV1wgAJ75d9l+kkJg0wSWFADDf9Ot0GdwawjAt50pAC/1sn+fzScrBDZOYCkBMPw33gi9hreGADzjDAEw/HvtPHkhsH0CSwiA4b/9Pug2wjUE4CNHCoDh323bSQyBJgjMLQCGfxNt0G+QawhAofmiExJg+PfbczJDoBUCcwqA4d9KF3Qc51oC8IABCfjnfubfccdJDYF2CMwlAIZ/Oz3QdaRrCcAV1PLjgPKegDL0b0/y4Vc3+IoAAgisTGAOATD8Vy6q7e8hsLYA3BOJ7xBAAIFtEagtAIb/tuq7+2gIwO5bAAAEEDhCoKYAGP5HILt6PQIEYD32dkYAgW0TqCUAhv+267zb6AjAbksvcQQQOEGghgAY/icgu3k9AgRgPfZ2RgCBbROYKgCG/7bru/voCMDuWwAABBA4QmCKABj+R6C6ejsECMB2aiESBBDYFoFLBcDw31YdRXOEAAE4AsbVCCCwewKXCIDhv/u2aQcAAWinViJFAIFlCZwrAIb/svWx20QCBGAiQKcjgEC3BM4RAMO/2zboNzEC0G9tZYYAAtMIjBWA703yKyf+wNmd19z+tiRPmhaisxG4nMBYAXhjku9K8pokP5nky5K81+XbOhMBBBDYPIGxAnDdcD91neG/+fL3H+BYAbiumf9nkj/bPyIZIoDATgnMJQCG/04bamtpTxGAIgVFArwSsLWqigcBBGoQmEMADP8albFGFQJTBaBIwFOrRGIRBBBAYFsEagtAGf6fta0URbNnAjUE4Mf3DFDuCCDQLYGaAuCZf7dt0m5iNQTgZ9pNX+QIIIDAUQK1BMDwP4rYDWsSqCEAL1gzAXsjgAACMxGoIQBe9p+pOJadTqCGAPxmktf5h4Ee0AOd9cBvX/PZ/es+EXXsOs/8p88oK8xIoIYAHGt+1ycYYKAH9tkDnvnPOLgsXYcAAdjng5OhpO56YL4eMPzrzCerzEyAAMz3IOABFls9sL8eMPxnHlqWr0eAAOzvAcpQUnM9ME8PGP71ZpOVFiDw2IlvcvFAMs8DCa646oG2eqAMf3/YZ4GhZYt6BB5BALxRTw/oAT0wqQcM/3ozyUoLErh3kte680+683um1tYzNfVSr5o9YPgvOLBsVZ/AI5O8lQSQAD2gB/TAWT1g+NefR1ZcgUCRAK8EeGZU85mRtfRTzz3w+iSftMJjtS0RmIXAvZI8PEl5Y2D5dIB/GOgBPaAHbuyBT0vyUUnuM8ujsEURQAABBBBAAAEEEEAAAQQQQAABBBBAAAEEEEAAAQQQQAABBBBAAAEEEEAAAQQQQAABBBBAAAEEEEAAAQQQQAABBBBAAAEEEEAAAQQQQAABBBBAAAEEEEAAAQQQQAABBBBAAAEEEEAAAQQQQAABBBBAAAEEEEAAAQQQQAABBBBAAAEEEEAAAQQQQAABBBBAAAEEEEAAAQQQQAABBBBAAAEEEEAAAQQQQAABBBBAAAEEEEAAAQQQQAABBBBAAAEEEEAAAQQQQAABBBBAAAEEEEAAAQQQQAABBBBAAAEEEEAAAQQQQAABBBBAAAEEEEAAAQQQQAABBBBAAIGtEfj/dMgChDeNXS8AAAAASUVORK5CYII=;fontStyle=1" parent="1" vertex="1">
                    <mxGeometry x="-120.85" y="1698" width="55" height="55" as="geometry"/>
                </mxCell>
                <mxCell id="114" style="edgeStyle=orthogonalEdgeStyle;shape=connector;rounded=0;orthogonalLoop=1;jettySize=auto;html=1;labelBackgroundColor=none;strokeColor=default;strokeWidth=2;fontFamily=Source Sans Pro;fontSize=16;fontColor=default;endArrow=open;endFill=0;startSize=6;endSize=6;sourcePerimeterSpacing=0;targetPerimeterSpacing=0;" parent="1" source="84" target="113" edge="1">
                    <mxGeometry relative="1" as="geometry"/>
                </mxCell>
                <mxCell id="180" style="edgeStyle=orthogonalEdgeStyle;shape=connector;rounded=0;html=1;labelBackgroundColor=none;strokeColor=default;strokeWidth=2;fontFamily=Source Sans Pro;fontSize=16;fontColor=default;startArrow=open;startFill=0;endArrow=open;endFill=0;startSize=6;endSize=6;sourcePerimeterSpacing=0;targetPerimeterSpacing=0;" parent="1" source="145" target="58" edge="1">
                    <mxGeometry relative="1" as="geometry"/>
                </mxCell>
                <mxCell id="145" value="Matrices:" style="rounded=0;whiteSpace=wrap;html=1;labelBackgroundColor=none;fontColor=default;align=left;verticalAlign=top;labelPosition=center;verticalLabelPosition=middle;fontFamily=Source Sans Pro;fontStyle=3;fontSize=16;spacing=0;spacingLeft=10;" parent="1" vertex="1">
                    <mxGeometry x="361.5" y="1460" width="93" height="28" as="geometry"/>
                </mxCell>
                <mxCell id="147" value="UI:&lt;br&gt;&lt;span style=&quot;font-weight: normal;&quot;&gt;&lt;br&gt;select&lt;br&gt;slider&lt;br&gt;checklist&lt;br&gt;radio&lt;br&gt;button&lt;br&gt;&lt;br&gt;...&lt;br&gt;&lt;/span&gt;" style="rounded=0;whiteSpace=wrap;html=1;labelBackgroundColor=none;fontColor=default;align=left;verticalAlign=top;labelPosition=center;verticalLabelPosition=middle;fontFamily=Source Sans Pro;fontStyle=3;fontSize=16;spacing=0;spacingLeft=10;" parent="1" vertex="1">
                    <mxGeometry x="489.5" y="1906" width="97.5" height="233" as="geometry"/>
                </mxCell>
                <mxCell id="148" value="Selector:&lt;br&gt;&lt;br&gt;" style="rounded=0;whiteSpace=wrap;html=1;labelBackgroundColor=none;fontColor=default;align=left;verticalAlign=top;labelPosition=center;verticalLabelPosition=middle;fontFamily=Source Sans Pro;fontStyle=3;fontSize=16;spacing=0;spacingLeft=10;" parent="1" vertex="1">
                    <mxGeometry x="350" y="1936.75" width="102" height="35.5" as="geometry"/>
                </mxCell>
                <mxCell id="160" value="Worker:" style="rounded=0;whiteSpace=wrap;html=1;labelBackgroundColor=none;fontColor=default;align=left;verticalAlign=top;labelPosition=center;verticalLabelPosition=middle;fontFamily=Source Sans Pro;fontStyle=3;fontSize=16;spacing=0;spacingLeft=10;" parent="1" vertex="1">
                    <mxGeometry x="488" y="1777" width="93" height="36" as="geometry"/>
                </mxCell>
                <mxCell id="162" value="Timer:" style="rounded=0;whiteSpace=wrap;html=1;labelBackgroundColor=none;fontColor=default;align=left;verticalAlign=top;labelPosition=center;verticalLabelPosition=middle;fontFamily=Source Sans Pro;fontStyle=3;fontSize=16;spacing=0;spacingLeft=10;" parent="1" vertex="1">
                    <mxGeometry x="488" y="1835" width="93" height="36" as="geometry"/>
                </mxCell>
                <mxCell id="144" value="Mouse:&lt;br&gt;&lt;br&gt;&lt;span style=&quot;font-weight: normal;&quot;&gt;pos&lt;br&gt;buttons&lt;br&gt;...&lt;br&gt;&lt;/span&gt;" style="rounded=0;whiteSpace=wrap;html=1;labelBackgroundColor=none;fontColor=default;align=left;verticalAlign=top;labelPosition=center;verticalLabelPosition=middle;fontFamily=Source Sans Pro;fontStyle=3;fontSize=16;spacing=0;spacingLeft=10;" parent="1" vertex="1">
                    <mxGeometry x="350" y="1976" width="102" height="111" as="geometry"/>
                </mxCell>
                <mxCell id="200" value="" style="shape=image;verticalLabelPosition=bottom;labelBackgroundColor=default;verticalAlign=top;aspect=fixed;imageAspect=0;image=data:image/svg+xml,PHN2ZyB4bWxucz0iaHR0cDovL3d3dy53My5vcmcvMjAwMC9zdmciIHdpZHRoPSI0OCIgaGVpZ2h0PSI0OCIgdmlld0JveD0iMCAwIDQ4IDQ4Ij48cGF0aCBkPSJNNiA0MnYtOC40bDE4Ljg1LTE4Ljg1LTMuNi0zLjZMMjMuMyA5LjFsNC42IDQuNkwzNSA2LjZxLjU1LS41NSAxLjE3NS0uNTV0MS4xNzUuNTVsNC4wNSA0LjA1cS41NS41NS41NSAxLjE3NVQ0MS40IDEzbC03LjEgNy4xIDQuNiA0LjYtMi4wNSAyLjA1LTMuNi0zLjZMMTQuNCA0MlptMy0zaDQuMzVMMzEuMSAyMS4yNWwtNC4zNS00LjM1TDkgMzQuNjVabTIzLjE1LTIxIDYuMi02LjItMi4xNS0yLjE1LTYuMiA2LjJabTAgMEwzMCAxNS44NSAzMi4xNSAxOFoiLz48L3N2Zz4=;" vertex="1" parent="1">
                    <mxGeometry width="48" height="48" as="geometry"/>
                </mxCell>
                <mxCell id="219" style="edgeStyle=orthogonalEdgeStyle;shape=connector;rounded=0;html=1;labelBackgroundColor=none;strokeColor=default;strokeWidth=2;fontFamily=Source Sans Pro;fontSize=16;fontColor=default;endArrow=open;endFill=0;startSize=6;endSize=6;sourcePerimeterSpacing=0;targetPerimeterSpacing=0;" edge="1" parent="1" source="202" target="83">
                    <mxGeometry relative="1" as="geometry">
                        <Array as="points">
                            <mxPoint x="-9" y="1522"/>
                            <mxPoint x="-9" y="1522"/>
                        </Array>
                    </mxGeometry>
                </mxCell>
                <mxCell id="202" value="DataScene(Qt QTreeView):" style="rounded=0;whiteSpace=wrap;html=1;labelBackgroundColor=none;fontColor=default;align=left;verticalAlign=top;labelPosition=center;verticalLabelPosition=middle;fontFamily=Source Sans Pro;fontStyle=3;fontSize=16;spacing=0;spacingLeft=10;" vertex="1" parent="1">
                    <mxGeometry x="19" y="1502" width="228" height="40" as="geometry"/>
                </mxCell>
                <mxCell id="221" style="edgeStyle=orthogonalEdgeStyle;shape=connector;rounded=0;html=1;entryX=1.005;entryY=0.897;entryDx=0;entryDy=0;entryPerimeter=0;labelBackgroundColor=none;strokeColor=default;strokeWidth=2;fontFamily=Source Sans Pro;fontSize=16;fontColor=default;endArrow=open;endFill=0;startSize=6;endSize=6;sourcePerimeterSpacing=0;targetPerimeterSpacing=0;" edge="1" parent="1" source="204" target="83">
                    <mxGeometry relative="1" as="geometry"/>
                </mxCell>
                <mxCell id="204" value="FlowScene(Ryven Flow):" style="rounded=0;whiteSpace=wrap;html=1;labelBackgroundColor=none;fontColor=default;align=left;verticalAlign=top;labelPosition=center;verticalLabelPosition=middle;fontFamily=Source Sans Pro;fontStyle=3;fontSize=16;spacing=0;spacingLeft=10;" vertex="1" parent="1">
                    <mxGeometry x="19" y="1552" width="228" height="40" as="geometry"/>
                </mxCell>
                <mxCell id="209" style="edgeStyle=orthogonalEdgeStyle;shape=connector;rounded=0;html=1;entryX=1;entryY=0.5;entryDx=0;entryDy=0;labelBackgroundColor=none;strokeColor=default;strokeWidth=2;fontFamily=Source Sans Pro;fontSize=16;fontColor=default;endArrow=open;endFill=0;startSize=6;endSize=6;sourcePerimeterSpacing=0;targetPerimeterSpacing=0;" edge="1" parent="1" source="47" target="202">
                    <mxGeometry relative="1" as="geometry">
                        <Array as="points">
                            <mxPoint x="350" y="1522"/>
                        </Array>
                    </mxGeometry>
                </mxCell>
                <mxCell id="210" style="edgeStyle=orthogonalEdgeStyle;shape=connector;rounded=0;html=1;entryX=1;entryY=0.5;entryDx=0;entryDy=0;labelBackgroundColor=none;strokeColor=default;strokeWidth=2;fontFamily=Source Sans Pro;fontSize=16;fontColor=default;endArrow=open;endFill=0;startSize=6;endSize=6;sourcePerimeterSpacing=0;targetPerimeterSpacing=0;" edge="1" parent="1" source="47" target="204">
                    <mxGeometry relative="1" as="geometry">
                        <Array as="points">
                            <mxPoint x="332" y="1572"/>
                        </Array>
                    </mxGeometry>
                </mxCell>
                <mxCell id="217" style="edgeStyle=orthogonalEdgeStyle;shape=connector;rounded=0;html=1;entryX=0.79;entryY=0.992;entryDx=0;entryDy=0;entryPerimeter=0;labelBackgroundColor=none;strokeColor=default;strokeWidth=2;fontFamily=Source Sans Pro;fontSize=16;fontColor=default;endArrow=open;endFill=0;startSize=6;endSize=6;sourcePerimeterSpacing=0;targetPerimeterSpacing=0;" edge="1" parent="1" source="47" target="201">
                    <mxGeometry relative="1" as="geometry">
                        <Array as="points">
                            <mxPoint x="368" y="1554"/>
                            <mxPoint x="368" y="1554"/>
                        </Array>
                    </mxGeometry>
                </mxCell>
                <mxCell id="47" value="Scene:&lt;br&gt;---&lt;br&gt;Managing and distributing scene data.&lt;br&gt;---&lt;br&gt;" style="rounded=0;whiteSpace=wrap;html=1;labelBackgroundColor=none;fontColor=default;align=left;verticalAlign=top;labelPosition=center;verticalLabelPosition=middle;fontFamily=Source Sans Pro;fontStyle=3;fontSize=16;spacing=0;spacingLeft=10;" parent="1" vertex="1">
                    <mxGeometry x="301" y="1613" width="170" height="260" as="geometry"/>
                </mxCell>
                <mxCell id="213" value="Key:&lt;br&gt;" style="rounded=0;whiteSpace=wrap;html=1;labelBackgroundColor=none;fontColor=default;align=left;verticalAlign=top;labelPosition=center;verticalLabelPosition=middle;fontFamily=Source Sans Pro;fontStyle=3;fontSize=16;spacing=0;spacingLeft=10;" vertex="1" parent="1">
                    <mxGeometry x="350" y="2090.25" width="102" height="35.5" as="geometry"/>
                </mxCell>
                <mxCell id="161" value="Plot:" style="rounded=0;whiteSpace=wrap;html=1;labelBackgroundColor=none;fontColor=default;align=left;verticalAlign=top;labelPosition=center;verticalLabelPosition=middle;fontFamily=Source Sans Pro;fontStyle=3;fontSize=16;spacing=0;spacingLeft=10;" parent="1" vertex="1">
                    <mxGeometry x="496" y="2090" width="85" height="36" as="geometry"/>
                </mxCell>
            </root>
        </mxGraphModel>
    </diagram>
</mxfile>
